<svg id="Layer_1" data-name="Layer 1" xmlns="http://www.w3.org/2000/svg" viewBox="0 0 25 25"><defs></defs><path class="cls-1" d="M1.36,12.47A11.05,11.05,0,1,1,12.28,23.54,11,11,0,0,1,1.36,12.47Zm2.21,0a8.84,8.84,0,1,0,9-8.82A8.87,8.87,0,0,0,3.57,12.45Z"/><path class="cls-1" d="M13.51,14.69c0,1,0,2,0,3,0,.2,0,.29-.26.28H11.57c-.21,0-.27-.06-.27-.27,0-1.56,0-3.13,0-4.69,0-.49,0-1,0-1.48,0-.15,0-.21.2-.21.6,0,1.21,0,1.81,0,.21,0,.21.1.21.25,0,1,0,2.05,0,3.07Z"/><path class="cls-1" d="M11.3,8.06c0-.3,0-.6,0-.9s0-.23.21-.23h1.81c.15,0,.2,0,.2.19,0,.62,0,1.24,0,1.86a.22.22,0,0,1-.16.16H11.46c-.14,0-.16-.07-.16-.19,0-.3,0-.6,0-.91Z"/></svg>