<svg id="Layer_1" data-name="Layer 1" xmlns="http://www.w3.org/2000/svg" viewBox="0 0 25 25"><defs></defs><path class="cls-1" d="M10.7,6.46l.19.22,0,0-.21-.26.26-.23Z"/><path class="cls-1" d="M12.88,6.44l-.24.26,0,0,.2-.22-.19-.21,0,0Z"/><path class="cls-1" d="M12.68,19.58c-2.71,0-5.42,0-8.13,0a2.24,2.24,0,0,1-2.26-1.77,2.46,2.46,0,0,1,0-.54V8.33A2.22,2.22,0,0,1,4.55,6H20.83a2.23,2.23,0,0,1,2.31,2.33v8.91a2.23,2.23,0,0,1-2.32,2.32C18.11,19.59,15.4,19.58,12.68,19.58Zm0-1.23h8.06a1,1,0,0,0,1.18-1.17V8.43a1,1,0,0,0-1.17-1.18H4.63A1,1,0,0,0,3.46,8.42v8.71c0,.85.36,1.22,1.22,1.22Z"/><path class="cls-1" d="M6.74,13.14c.27.61.83.69,1.4.69a1.28,1.28,0,0,0,1.31-.69,2.12,2.12,0,0,1,1.87,1.57.83.83,0,0,1,0,.15c.21,1-.2,1.58-1.21,1.6-1.37,0-2.73,0-4.1,0-1,0-1.4-.55-1.23-1.56A2.14,2.14,0,0,1,6.74,13.14Z"/><path class="cls-1" d="M8.1,9.11A1.69,1.69,0,0,1,9.76,10.8a3,3,0,0,1-.5,1.8,1.32,1.32,0,0,1-2.33,0,2.81,2.81,0,0,1-.45-2.16A1.64,1.64,0,0,1,8.1,9.11Z"/><path class="cls-1" d="M16.53,12.25h3.4a.83.83,0,0,1,.41.1.49.49,0,0,1,.24.55.53.53,0,0,1-.44.45h-7a.56.56,0,0,1-.59-.55.55.55,0,0,1,.58-.56h3.45Z"/><path class="cls-1" d="M16.56,9.92h3.29a1.41,1.41,0,0,1,.29,0,.54.54,0,0,1,.45.54.52.52,0,0,1-.46.53,1.31,1.31,0,0,1-.28,0h-6.6c-.5,0-.74-.17-.75-.54s.25-.55.76-.55Z"/><path class="cls-1" d="M14.91,14.59h1.72c.41,0,.63.21.64.55s-.23.55-.63.55H13.09a.53.53,0,0,1-.56-.37.5.5,0,0,1,.17-.6.82.82,0,0,1,.43-.12C13.72,14.58,14.32,14.59,14.91,14.59Z"/></svg>