<?xml version="1.0" encoding="utf-8"?>
<!-- Generator: Adobe Illustrator 25.4.1, SVG Export Plug-In . SVG Version: 6.00 Build 0)  -->
<svg version="1.1" id="Layer_1" xmlns="http://www.w3.org/2000/svg" xmlns:xlink="http://www.w3.org/1999/xlink" x="0px" y="0px"
	 viewBox="0 0 100 100" style="enable-background:new 0 0 100 100;" xml:space="preserve">
<path d="M63.6,70.6c0.7,4.1-0.8,7.6-2.6,11.1c1.3,0.2,2.5,0.3,3.6,0.5c1.4,0.4,2.9,0.7,4.1,1.4c0.8,0.5,1.6,1.5,1.9,2.4
	c0.5,1.6-0.3,2.6-2,2.6c-7,0-14.1-0.1-21.1,0c-3.2,0.1-5.8-1-8.1-3.3c-0.5-0.5-1.1-1-1.8-1.6c-2.9,3.8-7,4.7-11.3,5.2
	c-3,0.3-6.2,0.4-9.2,0.1c-4.5-0.6-7.2-3.4-8.3-7.9c-0.6-2.7-0.4-5.4,0-8.3c1.5,1,2.8,1.9,4.1,2.7c5.8,3.3,11.9,4.3,18.5,2.5
	c1.1-0.3,1.3-0.7,1-1.8c-2-7.7-0.2-14.5,4.9-20.5C42,50.2,48,46.4,54.5,43.5c0.6-0.3,1.1-0.5,1-1.4c-0.2-3.6,0.7-6.9,2.1-10.1
	c1.5-3.4,3.3-6.7,4.9-10c0.4-0.9,0.8-1.8,0.9-2.7c0.6-3.8,3-6.2,5.7-8.4c0.2,0,0.3,0,0.5,0c0.4,1.9,0.7,3.8,1.1,5.7
	c1.5-1,2.9-2.1,4.4-3.1c1-0.6,1.4-0.5,1.5,0.7c0.1,1.1-0.1,2.2-0.1,3.3c0,0.4,0.2,0.9,0.5,1.1c1.5,0.9,2.5,2,3.3,3.5
	c0.3,0.5,0.8,0.9,1.3,1.1c2.6,1.2,5.1,2.3,7.7,3.5c1.4,0.6,1.7,1.7,0.7,2.9c-0.8,1-1.6,2.3-2.6,3.1c-1.2,0.9-2.6,1.9-4,2.1
	c-2.2,0.4-4.4,0.1-6.6,0.1c-0.3,0-0.7-0.1-1.1-0.1c0.3,1.8,0.7,3.4,0.9,5.1c0.8,6.7,0.5,13.3-0.7,20c-1,5.5-1,11,0.4,16.5
	c0.7,2.7,2,5,4.3,6.8c1.1,0.9,2.1,1.9,3,3c0.3,0.4,0.4,1.2,0.3,1.8c0,0.2-0.9,0.4-1.5,0.4c-1.6,0-3.3-0.1-4.9-0.1
	c-1.3,0.1-2.2-0.4-2.7-1.5c-1.7-3-3.4-6.1-4.9-9.2c-1.1-2.2-1.9-4.5-2.8-6.8c-0.3-0.7-0.6-1.1-1.4-0.8
	C65.1,70.3,64.4,70.4,63.6,70.6z"/>
</svg>
