<svg id="Layer_1" data-name="Layer 1" xmlns="http://www.w3.org/2000/svg" viewBox="0 0 25 25"><defs></defs><path class="cls-1" d="M5.77,20.4H19.23V18.76c0-.62,0-1.24,0-1.86a1.57,1.57,0,0,1,1.17-1.6,1.55,1.55,0,0,1,1.94,1.26c0,.43,0,.86,0,1.29,0,1.32,0,2.64,0,4a1.58,1.58,0,0,1-1.73,1.73H4.33A1.55,1.55,0,0,1,2.7,22.37a1.81,1.81,0,0,1-.06-.52c0-1.63,0-3.27,0-4.91a1.59,1.59,0,0,1,.89-1.54,1.53,1.53,0,0,1,2.22,1.22c0,1.14,0,2.28,0,3.42Z"/><path class="cls-1" d="M14.07,13.24l1.74-1.74a2.32,2.32,0,0,1,1-.68,1.58,1.58,0,0,1,1.72.67,1.5,1.5,0,0,1-.1,1.81c-.47.52-1,1-1.46,1.5l-3.28,3.28a1.54,1.54,0,0,1-1.95.31,2,2,0,0,1-.45-.37c-1.51-1.5-3-3-4.52-4.52a1.59,1.59,0,0,1-.36-1.82A1.55,1.55,0,0,1,8,10.79a1.66,1.66,0,0,1,1,.52l1.78,1.79.16.15V2.4A1.58,1.58,0,0,1,12.33.74a1.53,1.53,0,0,1,1.72,1.43c0,1,0,2.05,0,3.08v8Z"/></svg>