<svg width="25" height="25" viewBox="0 0 25 25" fill="none" xmlns="http://www.w3.org/2000/svg">
<path d="M2.66 2.05V16.41L12.5 19.85H24C24 19.85 24.12 5.28 24.13 5.05C24.14 4.82 12.79 5.18 12.79 5.18L2.66 2.05Z" stroke="black" stroke-miterlimit="10"/>
<path d="M4.31 5.69L10.63 7.83" stroke="black" stroke-miterlimit="10" stroke-linecap="round"/>
<path d="M4.31 7.72L10.63 9.86" stroke="black" stroke-miterlimit="10" stroke-linecap="round"/>
<path d="M4.31 9.88L10.63 12.02" stroke="black" stroke-miterlimit="10" stroke-linecap="round"/>
<path d="M4.31 12.04L10.63 14.17" stroke="black" stroke-miterlimit="10" stroke-linecap="round"/>
<path d="M4.31 13.8L10.63 15.94" stroke="black" stroke-miterlimit="10" stroke-linecap="round"/>
<path d="M14.73 14.17H22.18" stroke="black" stroke-miterlimit="10" stroke-linecap="round"/>
<path d="M14.73 12.02H22.18" stroke="black" stroke-miterlimit="10" stroke-linecap="round"/>
<path d="M14.73 16.2H22.18" stroke="black" stroke-miterlimit="10" stroke-linecap="round"/>
<path d="M12.5 5.08V19.71" stroke="black" stroke-miterlimit="10" stroke-linecap="round"/>
<path d="M15.38 19.85V21.75H17.31V22.63H7.89V21.91H9.74V20.15H0.58V4.76H2.52V16.41L12.32 19.85H15.38Z" fill="black"/>
<path d="M17 10.33C17 10.1 17 9.89 17 9.68C17.0119 9.48231 17.0958 9.29582 17.2358 9.15579C17.3758 9.01575 17.5623 8.93187 17.76 8.92H18.6C18.795 8.93185 18.979 9.01468 19.1172 9.15284C19.2553 9.29101 19.3381 9.47496 19.35 9.67C19.36 9.8632 19.36 10.0568 19.35 10.25C19.3485 10.2716 19.3424 10.2926 19.332 10.3116C19.3217 10.3306 19.3073 10.3471 19.29 10.36C18.547 10.6202 17.7359 10.6096 17 10.33Z" fill="black"/>
<path d="M17.51 8.73C17.2444 8.82536 17.0222 9.01349 16.8844 9.25974C16.7466 9.50599 16.7024 9.79375 16.76 10.07C16.48 10.07 16.21 10.01 15.95 9.96C15.69 9.91 15.54 9.86 15.55 9.46C15.5348 9.32376 15.5348 9.18624 15.55 9.05C15.5841 8.88224 15.6718 8.7301 15.7998 8.61648C15.9279 8.50286 16.0894 8.4339 16.26 8.42C16.54 8.42 16.82 8.42 17.1 8.42C17.1671 8.41011 17.2356 8.42494 17.2926 8.46173C17.3496 8.49852 17.3913 8.55476 17.41 8.62C17.4365 8.66232 17.4704 8.69957 17.51 8.73Z" fill="black"/>
<path d="M18.8 8.74C18.8422 8.66069 18.8889 8.58389 18.94 8.51C18.9711 8.4672 19.0178 8.43843 19.07 8.43C19.4031 8.41115 19.7369 8.41115 20.07 8.43C20.2464 8.45906 20.4077 8.54708 20.5276 8.67968C20.6474 8.81227 20.7188 8.9816 20.73 9.16C20.74 9.35654 20.74 9.55346 20.73 9.75C20.7267 9.77222 20.7188 9.7935 20.7067 9.81245C20.6947 9.83141 20.6787 9.84761 20.66 9.86C20.2977 9.99017 19.915 10.0545 19.53 10.05C19.5873 9.78029 19.545 9.49893 19.4107 9.25807C19.2765 9.0172 19.0595 8.83314 18.8 8.74Z" fill="black"/>
<path d="M18.79 8.16C18.7705 8.31469 18.6953 8.45696 18.5784 8.5601C18.4615 8.66324 18.3109 8.72016 18.155 8.72016C17.9991 8.72016 17.8485 8.66324 17.7316 8.5601C17.6147 8.45696 17.5395 8.31469 17.52 8.16C17.5187 8.07595 17.5339 7.99246 17.5649 7.91431C17.5958 7.83615 17.6419 7.76486 17.7004 7.7045C17.7589 7.64414 17.8287 7.5959 17.9058 7.56252C17.983 7.52915 18.0659 7.5113 18.15 7.51C18.2349 7.50999 18.3189 7.52687 18.3972 7.55966C18.4756 7.59244 18.5466 7.64048 18.6061 7.70097C18.6657 7.76147 18.7126 7.8332 18.7442 7.91201C18.7758 7.99082 18.7913 8.07512 18.79 8.16Z" fill="black"/>
<path d="M17.36 7.67C17.36 7.75358 17.3434 7.83633 17.3111 7.91342C17.2788 7.99052 17.2315 8.06042 17.172 8.11905C17.1124 8.17768 17.0418 8.22388 16.9642 8.25494C16.8866 8.28601 16.8036 8.30133 16.72 8.3C16.552 8.29737 16.3918 8.22879 16.2739 8.10905C16.156 7.98931 16.09 7.82802 16.09 7.66C16.0873 7.57429 16.1019 7.48891 16.1329 7.40894C16.1638 7.32896 16.2105 7.25603 16.2702 7.19447C16.3299 7.1329 16.4014 7.08396 16.4804 7.05056C16.5594 7.01715 16.6442 6.99996 16.73 7C16.8158 7.00125 16.9004 7.01973 16.9789 7.05435C17.0574 7.08896 17.1282 7.13901 17.187 7.20152C17.2457 7.26402 17.2913 7.3377 17.3211 7.41818C17.3508 7.49866 17.364 7.5843 17.36 7.67Z" fill="black"/>
<path d="M19 7.66C18.9943 7.49516 19.0526 7.3345 19.1625 7.21154C19.2724 7.08857 19.4256 7.01279 19.59 7C19.7447 7.01945 19.887 7.0947 19.9901 7.21162C20.0932 7.32854 20.1502 7.47909 20.1502 7.635C20.1502 7.79091 20.0932 7.94146 19.9901 8.05838C19.887 8.1753 19.7447 8.25055 19.59 8.27C19.4341 8.25794 19.2881 8.18923 19.1794 8.07685C19.0707 7.96447 19.0069 7.81619 19 7.66Z" fill="black"/>
</svg>
