<svg width="18" height="14" viewBox="0 0 18 14" fill="none" xmlns="http://www.w3.org/2000/svg">
<path d="M9.00201 14C11.0025 14 13.0029 14 15.0033 14C16.0116 14 16.8318 13.6057 17.4399 12.7673C17.784 12.29 17.984 11.7462 17.992 11.1485C18.008 9.93655 18 8.72873 18 7.51675C18 6.01423 18.008 4.51586 17.996 3.01334C17.984 1.58968 17.0758 0.394308 15.7715 0.0871628C15.5155 0.0249036 15.2434 0.00415061 14.9793 0.00415061C10.9945 0 7.00557 0 3.02068 0C1.44833 0 0.264069 1.02935 0.0320168 2.60243C0.00801086 2.75185 0.00801277 2.90543 0.00401115 3.059C0.00401115 5.68633 9.53674e-06 8.31367 0.00401115 10.9452C0.00801277 12.4103 0.912212 13.6098 2.24451 13.917C2.50857 13.9792 2.78463 13.9958 3.05669 13.9958C5.04113 14 7.02157 14 9.00201 14ZM8.99801 13.1284C7.00557 13.1284 5.01312 13.1284 3.01668 13.1284C1.69639 13.1284 0.840197 12.236 0.840197 10.8663C0.840197 8.29291 0.840197 5.71954 0.840197 3.15031C0.840197 1.76401 1.69639 0.879929 3.02868 0.875778C7.00957 0.875778 10.9865 0.875778 14.9673 0.875778C16.2996 0.875778 17.1518 1.76401 17.1558 3.15031C17.1558 5.72369 17.1558 8.29706 17.1558 10.8663C17.1558 10.9991 17.1558 11.1278 17.1398 11.2606C17.0198 12.3439 16.1516 13.1242 15.0594 13.1284C13.0389 13.1284 11.0185 13.1284 8.99801 13.1284Z" fill="black"/>
<path d="M6.90954 7.79069C6.97355 7.85295 7.02556 7.90276 7.07757 7.95256C7.58569 8.46309 8.0898 8.97777 8.59391 9.48829C8.89798 9.79543 9.09802 9.79543 9.39809 9.49244C9.8982 8.98607 10.3983 8.47969 10.9024 7.96917C10.9544 7.91936 11.0064 7.86955 11.0745 7.80729C11.1945 7.91936 11.3025 8.01897 11.4065 8.12274C12.5828 9.28076 13.7551 10.4388 14.9313 11.5968C14.9953 11.6591 15.0553 11.7213 15.1234 11.7753C15.3394 11.9454 15.5795 11.9247 15.7475 11.7213C15.8995 11.5387 15.8875 11.3021 15.6955 11.1112C15.2354 10.6505 14.7673 10.1939 14.3032 9.73733C13.479 8.92796 12.6548 8.12274 11.8306 7.31337C11.7866 7.27186 11.7506 7.22621 11.6626 7.12659C11.7386 7.07264 11.8186 7.03943 11.8746 6.98132C13.1309 5.71124 14.3872 4.44115 15.6395 3.17106C15.6995 3.10881 15.7635 3.04655 15.8195 2.97599C15.9435 2.81411 15.9355 2.59828 15.7995 2.44471C15.6475 2.27038 15.4314 2.22057 15.2594 2.33679C15.1754 2.3949 15.1034 2.46546 15.0313 2.53602C13.0869 4.49926 11.1425 6.4625 9.19804 8.42988C9.13803 8.49214 9.07402 8.55025 8.998 8.62911C8.92598 8.5627 8.86197 8.5046 8.80196 8.44234C6.85352 6.47495 4.90509 4.50341 2.95666 2.53602C2.90464 2.48206 2.85263 2.42811 2.79262 2.38245C2.59258 2.22058 2.37253 2.24133 2.20449 2.43226C2.04045 2.61488 2.03645 2.83487 2.21649 3.02579C2.49655 3.32464 2.78462 3.61103 3.06868 3.90157C4.07691 4.92262 5.08113 5.93952 6.08935 6.95642C6.14537 7.01453 6.21738 7.05603 6.2814 7.10584C6.2934 7.1432 6.3054 7.1764 6.3174 7.21376C6.24539 7.25111 6.16137 7.27602 6.10536 7.33412C4.84108 8.57101 3.57679 9.81204 2.31251 11.0572C2.00044 11.3644 2.06046 11.7421 2.43254 11.8707C2.62458 11.9371 2.76862 11.8458 2.90064 11.7172C3.24872 11.3768 3.5968 11.0323 3.94488 10.6878C4.87308 9.77468 5.80129 8.8574 6.7295 7.94426C6.78951 7.89861 6.84552 7.85295 6.90954 7.79069Z" fill="black"/>
</svg>
