<svg width="16" height="15" viewBox="0 0 16 15" fill="none" xmlns="http://www.w3.org/2000/svg">
<path d="M15.9963 7.56935C15.9963 9.07019 15.5491 10.4433 14.7529 11.678C14.2621 12.4444 13.5641 13.0831 12.7898 13.6259C12.0154 14.1688 11.1429 14.403 10.2813 14.7329C9.50691 15.031 8.76526 15.0203 8.02362 14.9778C6.75846 14.8926 5.53694 14.5839 4.52263 13.7537C3.9664 13.3066 3.35564 12.9128 2.85394 12.4231C2.50493 12.0825 2.27589 11.6142 2.00323 11.2097C1.03255 9.78336 0.890765 8.18672 1.05436 6.55815C1.13071 5.77047 1.31612 4.94022 1.70875 4.25899C2.18864 3.42873 2.67943 2.5559 3.47561 1.92789C4.56626 1.06571 5.71144 0.405763 7.12929 0.139657C8.54713 -0.137094 9.89954 0.0119256 11.2083 0.458985C11.9282 0.703803 12.5716 1.22537 13.1715 1.71501C13.7713 2.194 14.3603 2.72621 14.7966 3.35422C15.211 3.93966 15.4837 4.64218 15.68 5.33406C15.8654 6.05787 15.8872 6.82425 15.9963 7.56935ZM8.98339 13.2215C9.04883 13.0618 9.07065 13.0299 9.07065 12.9979C9.07065 11.8271 9.07065 10.6562 9.07065 9.48532C9.07065 8.50605 9.07065 8.4954 10.0631 8.48476C10.4558 8.48476 10.6521 8.35703 10.6957 7.9419C10.7175 7.64386 10.8811 7.36711 10.9357 7.06907C10.9575 6.95199 10.9138 6.76039 10.8266 6.67523C10.3794 6.26011 9.88863 6.38784 9.38693 6.60072C8.84161 6.16431 9.02702 5.56823 9.10336 5.0786C9.27787 3.99288 10.2704 4.32285 11.0229 4.22705C11.0229 3.77999 11.0556 3.38616 11.0011 3.00296C10.9902 2.87523 10.783 2.68364 10.6521 2.67299C10.074 2.63041 9.47419 2.56655 8.91795 2.67299C8.45988 2.75815 7.92546 2.99232 7.6637 3.33294C7.35832 3.73742 7.27107 4.31221 7.17291 4.83378C7.09657 5.20633 7.20563 5.62145 7.12929 5.994C7.08566 6.1856 6.79118 6.48364 6.6494 6.46235C5.53694 6.29204 5.17702 6.36655 5.26427 7.60129C5.27518 7.68644 5.27518 7.78224 5.26427 7.86739C5.24246 8.29316 5.43878 8.48476 5.87504 8.46347C6.30039 8.44218 6.71484 8.46347 7.09657 8.46347C7.09657 10.0708 7.09657 11.529 7.09657 13.115C7.67461 13.1576 8.33991 13.1895 8.98339 13.2215Z" fill="black"/>
</svg>
