<svg width="25" height="25" viewBox="0 0 25 25" fill="none" xmlns="http://www.w3.org/2000/svg">
<path d="M13.26 4.49V6.13H20.56V21.95H7.98V11.76H6.53V23.33H22.13V4.49H13.26Z" fill="black"/>
<path d="M17.35 11.07H10.53V12.11H17.35V11.07Z" fill="black"/>
<path d="M17.35 14.25H10.53V15.29H17.35V14.25Z" fill="black"/>
<path d="M17.35 17.55H10.53V18.59H17.35V17.55Z" fill="black"/>
<path d="M8.26999 3.13V5.42H10.95V6.73H6.92999V3.07L8.26999 3.13Z" fill="black"/>
<path d="M7.59 10.98C10.1857 10.98 12.29 8.87574 12.29 6.28C12.29 3.68426 10.1857 1.58 7.59 1.58C4.99426 1.58 2.89 3.68426 2.89 6.28C2.89 8.87574 4.99426 10.98 7.59 10.98Z" stroke="black" stroke-miterlimit="10"/>
</svg>
