<?xml version="1.0" encoding="utf-8"?>
<!-- Generator: Adobe Illustrator 25.4.1, SVG Export Plug-In . SVG Version: 6.00 Build 0)  -->
<svg version="1.1" id="Layer_1" xmlns="http://www.w3.org/2000/svg" xmlns:xlink="http://www.w3.org/1999/xlink" x="0px" y="0px"
	 viewBox="0 0 100 100"  xml:space="preserve">

<g>
	<path d="M50.29,88.03c-13.35,0-26.7,0-40.05,0c-2.06,0-3.25-0.78-3.67-2.43c-0.1-0.4-0.11-0.83-0.11-1.24
		c-0.01-22.61-0.01-45.22,0-67.83c0-2.38,1.25-3.63,3.63-3.63c26.83,0,53.65,0,80.48,0c2.25,0,3.54,1.28,3.54,3.52
		c0,22.68,0,45.35,0,68.03c0,2.35-1.28,3.58-3.68,3.59C77.06,88.03,63.68,88.03,50.29,88.03z M88.91,18.06c-25.77,0-51.48,0-77.21,0
		c0,16.21,0,32.36,0,48.51c0.1,0.08,0.21,0.15,0.31,0.23c0.26-0.37,0.47-0.78,0.78-1.09c4.79-4.81,9.58-9.61,14.38-14.41
		c1.81-1.81,3.06-1.85,4.86-0.07c2.82,2.78,5.6,5.59,8.39,8.39c1.88,1.89,3.75,3.79,5.65,5.73c0.31-0.28,0.52-0.46,0.72-0.66
		c7.24-7.23,14.47-14.46,21.71-21.69c1.71-1.71,3.1-1.7,4.79,0c4.96,4.96,9.92,9.92,14.88,14.87c0.19,0.19,0.4,0.35,0.71,0.62
		C88.91,44.92,88.91,31.52,88.91,18.06z M11.62,82.82c25.85,0,51.56,0,77.29,0c0.01-0.31,0.03-0.53,0.03-0.75
		c0-5.02-0.02-10.04,0.02-15.05c0.01-0.81-0.25-1.37-0.81-1.93c-4.43-4.39-8.84-8.81-13.24-13.24c-1.31-1.32-2.56-2.69-4.1-4.32
		c-0.36,0.57-0.5,0.92-0.75,1.17c-7.18,7.2-14.37,14.38-21.55,21.57c-1.62,1.62-3.08,1.64-4.67,0.05
		c-3.73-3.73-7.46-7.46-11.18-11.2c-0.99-0.99-1.94-2.02-2.87-2.99c-0.26,0.16-0.32,0.18-0.36,0.23c-5.8,5.8-11.61,11.59-17.4,17.4
		c-0.19,0.19-0.39,0.48-0.4,0.72C11.61,77.22,11.62,79.99,11.62,82.82z"/>
	<path d="M46.15,46.76c-4.84-0.01-8.78-3.97-8.75-8.78c0.03-4.79,3.96-8.68,8.76-8.68c4.81,0,8.78,3.98,8.76,8.79
		C54.91,42.83,50.92,46.77,46.15,46.76z M49.74,38.02c0-2.01-1.63-3.61-3.62-3.59c-1.94,0.02-3.55,1.64-3.56,3.57
		c-0.01,1.96,1.65,3.65,3.59,3.66C48.11,41.67,49.74,40.02,49.74,38.02z"/>
</g>
</svg>
