<?xml version="1.0" encoding="utf-8"?>
<!-- Generator: Adobe Illustrator 25.4.1, SVG Export Plug-In . SVG Version: 6.00 Build 0)  -->
<svg version="1.1" id="Layer_1" xmlns="http://www.w3.org/2000/svg" xmlns:xlink="http://www.w3.org/1999/xlink" x="0px" y="0px"
	 viewBox="0 0 100 100" style="enable-background:new 0 0 100 100;" xml:space="preserve">
<style type="text/css">
	.st0{clip-path:url(#SVGID_00000024681534610797751380000011988112818397559985_);}
</style>
<g>
	<defs>
		<rect id="SVGID_1_" y="-0.1" width="100" height="100"/>
	</defs>
	<clipPath id="SVGID_00000096776879902852386500000003951269447478996381_">
		<use xlink:href="#SVGID_1_"  style="overflow:visible;"/>
	</clipPath>
	<path style="clip-path:url(#SVGID_00000096776879902852386500000003951269447478996381_);" d="M17.8,50.7c0-11.7,0-23.5,0-35.2
		c0-4.8,1.2-5.9,6.1-5.9c11.9,0,23.9,0,35.8-0.1c2.2,0,3.8,0.7,5.3,2.3c5,5.2,10.2,10.1,15.2,15.3c1,1.1,1.8,2.8,1.8,4.2
		C82.1,49.8,82,68.2,82,86.6c0,3.8-1.4,5.3-5.3,5.3c-17.9,0-35.9,0-53.8,0c-3.8,0-5.1-1.5-5.1-5.4C17.8,74.6,17.8,62.7,17.8,50.7z
		 M61,12.6c-0.6-0.3-0.8-0.4-0.9-0.4c-12.5,0-25-0.1-37.5-0.1c-1.9,0-2.4,1.2-2.4,2.9c0,23.9,0,47.7,0,71.6c0,2.1,0.9,2.9,3,2.9
		c17.8,0,35.7,0,53.5,0c2,0,3.1-0.6,3.1-2.8c0-17.8,0-35.7,0-53.5c0-2-0.8-2.5-2.6-2.4c-3.3,0.1-6.6,0-9.9,0c-5,0-6.2-1.1-6.2-6.2
		C61,20.5,61,16.5,61,12.6z M76.9,28.2c-4.6-4.6-8.9-8.9-13.3-13.3c0,3.9-0.1,7.8,0.1,11.7c0,0.6,1.2,1.5,2,1.6
		C69.3,28.3,73.1,28.2,76.9,28.2z"/>
	<path style="clip-path:url(#SVGID_00000096776879902852386500000003951269447478996381_);" d="M49.9,49.5c6.4,0,12.8,0,19.2,0
		c0.8,0,1.6,0,2.3,0.2c0.4,0.1,0.7,0.7,1.1,1.1c-0.4,0.4-0.7,0.9-1.2,1C70.7,52,70,52,69.3,52c-13,0-26,0-39,0
		c-0.6,0-1.2,0.1-1.7-0.1c-0.5-0.2-0.9-0.8-1.4-1.2c0.5-0.4,0.9-1,1.5-1.1c1.4-0.2,2.9-0.1,4.4-0.1C38.7,49.6,44.3,49.6,49.9,49.5
		C49.9,49.6,49.9,49.5,49.9,49.5z"/>
	<path style="clip-path:url(#SVGID_00000096776879902852386500000003951269447478996381_);" d="M49.6,70.5c-6.6,0-13.2,0-19.8-0.1
		c-0.9,0-1.7-0.7-2.6-1.1c0.9-0.4,1.7-1.2,2.5-1.2c13.4-0.1,26.7-0.1,40.1,0c0.9,0,1.7,0.7,2.6,1.1c-0.8,0.4-1.7,1.2-2.5,1.2
		C63.2,70.6,56.4,70.5,49.6,70.5z"/>
	<path style="clip-path:url(#SVGID_00000096776879902852386500000003951269447478996381_);" d="M49.7,42.7c-6.7,0-13.4,0-20,0
		c-0.8,0-1.6-0.7-2.4-1c0.8-0.5,1.6-1.3,2.5-1.3c13.4-0.1,26.7-0.1,40.1,0c0.9,0,1.8,0.7,2.7,1.1c-0.9,0.4-1.8,1.2-2.7,1.2
		C63.1,42.7,56.4,42.7,49.7,42.7z"/>
	<path style="clip-path:url(#SVGID_00000096776879902852386500000003951269447478996381_);" d="M49.6,61.3c-6.2,0-12.4,0-18.6,0
		c-0.8,0-1.6,0.1-2.3-0.1c-0.5-0.2-1-0.7-1.5-1.1c0.5-0.4,0.9-0.9,1.4-1.1c0.5-0.2,1.1-0.1,1.7-0.1c13.1,0,26.1,0,39.2,0
		c0.6,0,1.2-0.1,1.7,0.1c0.5,0.2,0.8,0.7,1.2,1c-0.4,0.4-0.7,1-1.1,1.1c-0.8,0.2-1.7,0.2-2.6,0.2C62.4,61.3,56,61.3,49.6,61.3z"/>
	<path style="clip-path:url(#SVGID_00000096776879902852386500000003951269447478996381_);" d="M49.6,77.4c6.8,0,13.6,0,20.3,0.1
		c0.8,0,1.7,0.8,2.5,1.2c-0.9,0.4-1.7,1.1-2.6,1.1c-13.4,0.1-26.7,0.1-40.1,0c-0.9,0-1.7-0.8-2.5-1.2c0.9-0.4,1.7-1.1,2.6-1.1
		C36.5,77.4,43.1,77.4,49.6,77.4z"/>
	<path style="clip-path:url(#SVGID_00000096776879902852386500000003951269447478996381_);" d="M38.4,29.4c2.8,0,5.6-0.1,8.4,0
		c0.7,0,1.4,0.7,2.1,1.1c-0.6,0.4-1.3,1.2-1.9,1.2c-5.9,0.1-11.8,0.1-17.8,0c-0.6,0-1.3-0.8-1.9-1.2c0.7-0.4,1.4-1,2.1-1.1
		C32.3,29.4,35.3,29.4,38.4,29.4C38.4,29.4,38.4,29.4,38.4,29.4z"/>
</g>
</svg>
