<?xml version="1.0" encoding="utf-8"?>
<!-- Generator: Adobe Illustrator 25.4.1, SVG Export Plug-In . SVG Version: 6.00 Build 0)  -->
<svg version="1.1" id="Layer_1" xmlns="http://www.w3.org/2000/svg" xmlns:xlink="http://www.w3.org/1999/xlink" x="0px" y="0px"
	 viewBox="0 0 100 100" style="enable-background:new 0 0 100 100;" xml:space="preserve">
<style type="text/css">
	.st0{fill:#FFFFFF;}
</style>
<path d="M64.4,25.27c0,1.44,0,2.81,0,4.35c-1.61,0-3.09,0.01-4.58,0c-1.06-0.01-1.82,0.41-1.8,1.52c0.01,1.03,0.75,1.45,1.73,1.45
	c1.25,0,2.5-0.04,3.75,0.03c0.35,0.02,0.94,0.35,0.96,0.58c0.09,1.09,0.09,2.2-0.02,3.29c-0.02,0.23-0.62,0.57-0.96,0.59
	c-1.25,0.07-2.5,0.04-3.75,0.02c-1.01-0.01-1.69,0.44-1.72,1.46c-0.03,1.04,0.68,1.5,1.66,1.51c1.54,0.02,3.08,0,4.74,0
	c0,1.52,0,2.89,0,4.53c-1.46,0-2.88,0.02-4.3-0.01c-1.11-0.02-2.12,0.18-2.1,1.52c0.02,1.21,0.96,1.49,2.02,1.48
	c1.38-0.01,2.77,0,4.15,0c-0.1,7.18-7.75,13.67-15.72,13.45c-8.85-0.24-14.6-7.76-14.74-13.45c1.44,0,2.88-0.01,4.32,0
	c1.03,0.01,1.85-0.37,1.85-1.48c0-1.1-0.8-1.51-1.84-1.5c-1.49,0.01-2.97,0-4.58,0c0-1.53,0-2.91,0-4.51c1.2,0,2.38,0,3.55,0
	c2.09,0,3.01-0.44,2.87-1.54c-0.22-1.74-1.62-1.43-2.79-1.44c-1.15-0.02-2.29,0-3.72,0c0-1.37-0.05-2.65,0.05-3.92
	c0.02-0.23,0.62-0.56,0.97-0.58c1.25-0.07,2.5-0.02,3.75-0.02c0.98,0,1.73-0.41,1.76-1.43c0.04-1.12-0.75-1.54-1.79-1.54
	c-1.49,0-2.98,0-4.73,0c0-1.37-0.06-2.6,0.05-3.82c0.02-0.27,0.64-0.67,1.01-0.69c1.14-0.08,2.3-0.03,3.45-0.01
	c1.07,0.02,1.99-0.26,2.01-1.47c0.02-1.21-0.87-1.55-1.95-1.53c-1.44,0.02-2.87,0-4.28,0C32.73,15,40.2,7.6,48.52,7.21
	c8.22-0.38,16.13,6.96,15.79,14.89c-1.06,0-2.14-0.04-3.22,0.01c-1.22,0.06-2.81-0.47-3.09,1.45c-0.17,1.12,0.76,1.53,3.16,1.54
	c0.95,0,1.9,0.01,2.85,0.02C64.1,25.12,64.19,25.19,64.4,25.27z"/>
<path d="M30.19,37.04c-0.71,0.04-1.36,0.08-2.08,0.13c-0.67,8.05-0.42,15.87,5.81,22.04c5.61,5.56,12.38,7.54,20.1,5.71
	c9.24-2.2,15.8-10.58,15.9-20.1c0.03-2.49,0-4.98,0-7.54c-0.32-0.07-0.55-0.15-0.78-0.16c-1.47-0.07-2.15-1.17-1.57-2.55
	c0.06-0.13,0.15-0.35,0.23-0.35c1.43,0.01,2.91-0.14,4.27,0.19c0.45,0.11,0.81,1.47,0.84,2.28c0.1,2.69,0.05,5.4,0.03,8.09
	c-0.1,10.77-7.32,20.16-17.77,22.92c-1.42,0.37-1.9,0.93-1.75,2.32c0.1,0.93,0.02,1.88,0.02,2.92c0.42,0.06,0.75,0.15,1.07,0.15
	c1.41-0.02,1.95,0.71,1.94,2.06c-0.02,3.75,0.03,7.49-0.01,11.24c-0.05,4.42-3.29,7.72-7.5,7.7c-4.27-0.02-7.49-3.37-7.51-7.86
	c-0.01-3.35,0-6.7,0.01-10.04c0-2.86,0.01-2.86,2.98-3.25c0-1.36,0.1-2.75-0.07-4.11c-0.05-0.39-0.84-0.83-1.37-0.98
	c-8.94-2.59-14.77-8.29-17.26-17.27c-0.49-1.76-0.67-3.64-0.75-5.47c-0.12-2.99-0.03-5.99-0.05-8.99c-0.01-1.36,0.6-2.06,1.99-2.01
	c0.35,0.01,0.7,0,1.05,0C30.65,34.1,30.71,34.17,30.19,37.04z M50.29,72.99c0-1.46,0-2.89,0-4.29c-0.99,0-1.86,0-2.74,0
	c0,1.49,0,2.86,0,4.29C48.49,72.99,49.32,72.99,50.29,72.99z"/>
</svg>
