<?xml version="1.0" encoding="utf-8"?>
<!-- Generator: Adobe Illustrator 25.4.1, SVG Export Plug-In . SVG Version: 6.00 Build 0)  -->
<svg version="1.1" id="Layer_1" xmlns="http://www.w3.org/2000/svg" xmlns:xlink="http://www.w3.org/1999/xlink" x="0px" y="0px"
	 viewBox="0 0 100 100" style="enable-background:new 0 0 100 100;" xml:space="preserve">
<style type="text/css">
	.st0{fill:#FFFFFF;}
</style>
<g>
	<path d="M49.5,87.54c-7.91,0-15.81,0.03-23.72-0.02c-1.79-0.01-3.6-0.14-5.36-0.46c-3.24-0.59-5.89-2.31-8.11-4.7
		c-2.16-2.33-3.54-5.06-3.95-8.24C8.22,73,8.08,71.87,8.08,70.74C8.06,56.73,8.01,42.71,8.08,28.7C8.12,22.19,11,17.25,16.77,14.1
		c2.42-1.32,5.04-1.78,7.76-1.78c16.65-0.01,33.29,0,49.94-0.01c5.11,0,9.4,1.83,12.73,5.73c1.89,2.21,3.12,4.76,3.46,7.67
		c0.18,1.51,0.3,3.03,0.3,4.54c0.02,13.65,0.05,27.3,0,40.96c-0.03,6.5-2.92,11.4-8.65,14.55c-2.49,1.37-5.21,1.78-8.01,1.78
		C66.03,87.54,57.76,87.54,49.5,87.54z M49.51,35.22c-11.79,0-23.58,0-35.37-0.01c-0.75,0-1.16,0.09-1.15,1.02
		c0.03,11.82,0.01,23.64,0.04,35.46c0,1.04,0.14,2.12,0.46,3.1c1.56,4.85,5.76,7.88,10.92,7.89c16.7,0.02,33.4,0.01,50.1,0
		c1.84,0,3.66-0.29,5.31-1.16c4.03-2.11,6.18-5.46,6.2-10.02c0.04-11.65,0.01-23.31,0.02-34.96c0-1.32,0-1.32-1.32-1.32
		C72.98,35.22,61.25,35.22,49.51,35.22z M27.01,30.09c0.3,0.06,0.41,0.1,0.51,0.1c5.32,0,10.65,0.02,15.97-0.02
		c0.31,0,0.75-0.35,0.89-0.65c1.84-3.8,3.62-7.63,5.44-11.44c0.32-0.66,0.16-0.85-0.51-0.85c-5.19,0-10.37-0.01-15.56,0.03
		c-0.34,0-0.82,0.34-0.98,0.65c-1.52,3.1-2.99,6.22-4.47,9.34C27.88,28.15,27.47,29.08,27.01,30.09z M48.55,30.09
		c0.32,0.06,0.45,0.1,0.58,0.1c5.16,0,10.32,0.01,15.48-0.02c0.3,0,0.73-0.31,0.86-0.59c1.82-3.78,3.61-7.58,5.4-11.37
		c0.12-0.26,0.2-0.53,0.33-0.89c-0.38-0.03-0.62-0.08-0.86-0.08c-4.97,0-9.93,0-14.9-0.01c-0.57,0-0.91,0.2-1.16,0.73
		c-1.36,2.9-2.76,5.78-4.14,8.68C49.62,27.74,49.11,28.87,48.55,30.09z M69.67,30.12c0.46,0.04,0.7,0.08,0.94,0.08
		c4.85,0,9.7,0,14.55,0c0.4,0,0.92,0.11,0.86-0.56c-0.13-1.51-0.02-3.11-0.48-4.51c-1.43-4.34-4.38-7.06-9.02-7.75
		c-0.57-0.09-0.84,0.05-1.09,0.58c-1.35,2.9-2.75,5.78-4.13,8.67C70.77,27.73,70.26,28.86,69.67,30.12z M17.73,30.2
		C17.73,30.2,17.73,30.2,17.73,30.2c1.36,0,2.72,0.04,4.08-0.03c0.34-0.02,0.82-0.28,0.96-0.57c1.85-3.83,3.63-7.69,5.47-11.53
		c0.36-0.76,0.08-0.86-0.57-0.85c-1.28,0.02-2.55-0.01-3.83,0.03c-1.65,0.05-3.22,0.4-4.72,1.15c-4.26,2.14-6.47,6.5-6.11,11.26
		c0.04,0.53,0.35,0.54,0.73,0.54C15.07,30.2,16.4,30.2,17.73,30.2z"/>
	<path d="M40.5,58.49c0-3.85,0.01-7.71-0.01-11.56c-0.01-1.08,0.29-2,1.29-2.5c1.03-0.52,2.04-0.33,2.98,0.32
		c5.39,3.77,10.78,7.54,16.17,11.32c0.27,0.19,0.54,0.39,0.79,0.6c1.36,1.13,1.32,3.04-0.13,4.05c-5.01,3.49-10.04,6.96-15.06,10.44
		c-0.59,0.41-1.19,0.81-1.76,1.24c-0.9,0.68-1.9,0.83-2.89,0.36c-0.98-0.47-1.39-1.35-1.38-2.46C40.51,66.36,40.5,62.43,40.5,58.49z
		"/>
</g>
</svg>
