<?xml version="1.0" encoding="utf-8"?>
<!-- Generator: Adobe Illustrator 25.4.1, SVG Export Plug-In . SVG Version: 6.00 Build 0)  -->
<svg version="1.1" id="Layer_1" xmlns="http://www.w3.org/2000/svg" xmlns:xlink="http://www.w3.org/1999/xlink" x="0px" y="0px"
	 viewBox="0 0 100 100" style="enable-background:new 0 0 100 100;" xml:space="preserve">
<style type="text/css">
	.st0{clip-path:url(#SVGID_00000113320167077054475730000016283755746038130830_);}
</style>
<g>
	<defs>
		<rect id="SVGID_1_" y="0.1" width="100" height="100"/>
	</defs>
	<clipPath id="SVGID_00000024724274122579206690000002794309261407025290_">
		<use xlink:href="#SVGID_1_"  style="overflow:visible;"/>
	</clipPath>
	<path style="clip-path:url(#SVGID_00000024724274122579206690000002794309261407025290_);" d="M82.4,57.4c0,9.1,0,18.2,0,27.3
		c0,1.5-0.4,2.8-1.8,3.6c-0.8,0.4-1.9,0.8-2.9,0.8c-15.1,0.1-30.2,0-45.4,0c-3,0-6,0-9,0c-3.4,0-5-1.5-5-4.5c0-19.3,0-38.6,0-57.9
		c0-3.5,0-6.9,0-10.4c0-2.9,1.7-4.4,4.9-4.4c13,0,26.1,0,39.1,0c1.7,0,3,0.5,4.2,1.6c4.8,4.4,9.5,8.7,14.3,13c1.1,1,1.6,2.2,1.6,3.6
		C82.4,39.1,82.4,48.3,82.4,57.4C82.4,57.4,82.4,57.4,82.4,57.4z M50.3,58.1c9.3,0,18.6,0,27.9,0c1.1,0,1.3-0.3,1.3-1.3
		c0-8.7,0-17.5,0-26.2c0-0.8-0.2-1-1.1-1c-3.7,0-7.3,0-11,0c-3.1,0-4.7-1.4-4.7-4.2c0-3.1,0-6.2,0-9.4c0-1.8,0.3-1.6-1.8-1.6
		c-12.1,0-24.2,0-36.3,0c-3.5,0-3.5,0-3.5,3.1c0,13.1,0,26.2,0,39.4c0,0.9,0.3,1.2,1.3,1.2C31.8,58.1,41.1,58.1,50.3,58.1z
		 M50.4,60.7c-9.3,0-18.5,0-27.8,0c-1.4,0-1.4,0-1.4,1.3c0,5.9,0,11.8,0,17.7c0,1.6,0,3.2,0,4.8c0,1.5,0.4,1.9,2.1,1.9
		c0.2,0,0.4,0,0.6,0c17.8,0,35.5,0,53.3,0c2,0,2.3-0.3,2.3-2.1c0-7.5,0-15.1,0-22.6c0-0.9-0.4-1.1-1.3-1.1
		C69,60.7,59.7,60.7,50.4,60.7z M65.6,16.5c0,3,0,6,0,9c0,1.2,0.4,1.6,1.7,1.6c3,0,6.1,0,9.1,0c0.3,0,0.5,0,0.8-0.1
		C73.3,23.5,69.5,20.1,65.6,16.5z"/>
	<path style="clip-path:url(#SVGID_00000024724274122579206690000002794309261407025290_);" d="M50.4,76.8c-0.8,1.4-1.5,2.6-2.2,3.7
		c-0.2,0.3-0.4,0.7-0.6,1c-0.5,0.7-1.1,1-2,0.7c-0.8-0.3-1-1.1-0.5-1.9c1-1.8,2-3.6,3.1-5.3c0.5-0.8,0.5-1.4,0-2.1c-1-1.7-2-3.3-3-5
		c-0.6-1-0.5-1.7,0.3-2.1c0.8-0.4,1.6-0.1,2.2,0.9c0.8,1.4,1.7,2.9,2.6,4.5c0.8-1.4,1.5-2.6,2.2-3.8c0.2-0.4,0.4-0.8,0.7-1.1
		c0.5-0.7,1.2-0.9,1.9-0.5c0.8,0.4,0.9,1.1,0.5,1.8c-0.9,1.6-1.8,3.2-2.8,4.8c-0.8,1.2-0.8,2.1,0,3.2c0.9,1.3,1.7,2.8,2.5,4.2
		c0.8,1.3,0.7,2.1-0.3,2.5c-0.8,0.4-1.5-0.1-2.3-1.3C52,79.7,51.3,78.4,50.4,76.8z"/>
	<path style="clip-path:url(#SVGID_00000024724274122579206690000002794309261407025290_);" d="M34.9,68.2c-0.9,0-1.7,0-2.5,0
		c-1-0.1-1.7-0.6-1.6-1.3c0-0.7,0.7-1.2,1.7-1.2c2.6,0,5.1,0,7.7,0c1.1,0,1.8,0.5,1.8,1.3c0,0.8-0.7,1.3-1.8,1.3c-0.7,0-1.5,0-2.3,0
		c0,0.4-0.1,0.7-0.1,1c0,3.7,0,7.5,0,11.2c0,0.3,0.1,0.7-0.1,0.9c-0.3,0.4-0.8,0.9-1.3,1c-0.7,0.2-1.3-0.4-1.4-1
		c-0.1-0.6-0.1-1.2-0.1-1.8c0-3.4,0-6.8,0-10.2C34.9,69,34.9,68.7,34.9,68.2z"/>
	<path style="clip-path:url(#SVGID_00000024724274122579206690000002794309261407025290_);" d="M62.9,68.2c-0.9,0-1.7,0-2.5,0
		c-1-0.1-1.7-0.6-1.6-1.3c0-0.7,0.7-1.2,1.7-1.2c2.6,0,5.1,0,7.7,0c1.1,0,1.8,0.5,1.8,1.3s-0.7,1.3-1.8,1.3c-0.7,0-1.5,0-2.3,0
		c0,0.4-0.1,0.7-0.1,1c0,3.7,0,7.5,0,11.2c0,0.3,0,0.5,0,0.8c-0.1,0.7-0.6,1.2-1.4,1.2c-0.9,0-1.4-0.5-1.4-1.3c-0.1-0.6,0-1.2,0-1.8
		c0-3.3,0-6.7,0-10C63,69,62.9,68.7,62.9,68.2z"/>
</g>
</svg>
