<svg width="96" height="129" viewBox="0 0 96 129" fill="none" xmlns="http://www.w3.org/2000/svg">
<path d="M95.079 1H1V128.041H95.079V1Z" fill="#2E3191" stroke="white" stroke-width="0.75" stroke-miterlimit="10"/>
<path d="M95.079 1H1V128.041H95.079V1Z" stroke="black" stroke-width="0.75"/>
<path d="M14.328 62.488C13.88 62.312 13.536 62.056 13.296 61.72C13.056 61.384 12.936 60.976 12.936 60.496C12.936 60.064 13.044 59.676 13.26 59.332C13.476 58.98 13.796 58.704 14.22 58.504C14.652 58.296 15.172 58.192 15.78 58.192C16.388 58.192 16.904 58.296 17.328 58.504C17.76 58.704 18.084 58.98 18.3 59.332C18.524 59.676 18.636 60.064 18.636 60.496C18.636 60.96 18.512 61.368 18.264 61.72C18.016 62.064 17.676 62.32 17.244 62.488C17.74 62.64 18.132 62.908 18.42 63.292C18.716 63.668 18.864 64.124 18.864 64.66C18.864 65.18 18.736 65.636 18.48 66.028C18.224 66.412 17.86 66.712 17.388 66.928C16.924 67.136 16.388 67.24 15.78 67.24C15.172 67.24 14.636 67.136 14.172 66.928C13.716 66.712 13.36 66.412 13.104 66.028C12.848 65.636 12.72 65.18 12.72 64.66C12.72 64.124 12.864 63.664 13.152 63.28C13.44 62.896 13.832 62.632 14.328 62.488ZM17.58 60.628C17.58 60.14 17.42 59.764 17.1 59.5C16.78 59.236 16.34 59.104 15.78 59.104C15.228 59.104 14.792 59.236 14.472 59.5C14.152 59.764 13.992 60.144 13.992 60.64C13.992 61.088 14.156 61.448 14.484 61.72C14.82 61.992 15.252 62.128 15.78 62.128C16.316 62.128 16.748 61.992 17.076 61.72C17.412 61.44 17.58 61.076 17.58 60.628ZM15.78 62.968C15.188 62.968 14.704 63.108 14.328 63.388C13.952 63.66 13.764 64.072 13.764 64.624C13.764 65.136 13.944 65.548 14.304 65.86C14.672 66.172 15.164 66.328 15.78 66.328C16.396 66.328 16.884 66.172 17.244 65.86C17.604 65.548 17.784 65.136 17.784 64.624C17.784 64.088 17.6 63.68 17.232 63.4C16.864 63.112 16.38 62.968 15.78 62.968ZM20.8423 67.072C20.6343 67.072 20.4583 67 20.3143 66.856C20.1703 66.712 20.0983 66.536 20.0983 66.328C20.0983 66.12 20.1703 65.944 20.3143 65.8C20.4583 65.656 20.6343 65.584 20.8423 65.584C21.0423 65.584 21.2103 65.656 21.3463 65.8C21.4903 65.944 21.5623 66.12 21.5623 66.328C21.5623 66.536 21.4903 66.712 21.3463 66.856C21.2103 67 21.0423 67.072 20.8423 67.072ZM22.8098 60.508C22.8658 59.772 23.1498 59.196 23.6618 58.78C24.1738 58.364 24.8378 58.156 25.6538 58.156C26.1978 58.156 26.6658 58.256 27.0578 58.456C27.4578 58.648 27.7578 58.912 27.9578 59.248C28.1658 59.584 28.2698 59.964 28.2698 60.388C28.2698 60.884 28.1258 61.312 27.8378 61.672C27.5578 62.032 27.1898 62.264 26.7338 62.368V62.428C27.2538 62.556 27.6658 62.808 27.9698 63.184C28.2738 63.56 28.4258 64.052 28.4258 64.66C28.4258 65.116 28.3218 65.528 28.1138 65.896C27.9058 66.256 27.5938 66.54 27.1778 66.748C26.7618 66.956 26.2618 67.06 25.6778 67.06C24.8298 67.06 24.1338 66.84 23.5898 66.4C23.0458 65.952 22.7418 65.32 22.6778 64.504H23.7338C23.7898 64.984 23.9858 65.376 24.3218 65.68C24.6578 65.984 25.1058 66.136 25.6658 66.136C26.2258 66.136 26.6498 65.992 26.9378 65.704C27.2338 65.408 27.3818 65.028 27.3818 64.564C27.3818 63.964 27.1818 63.532 26.7818 63.268C26.3818 63.004 25.7778 62.872 24.9698 62.872H24.6938V61.96H24.9818C25.7178 61.952 26.2738 61.832 26.6498 61.6C27.0258 61.36 27.2138 60.992 27.2138 60.496C27.2138 60.072 27.0738 59.732 26.7938 59.476C26.5218 59.22 26.1298 59.092 25.6178 59.092C25.1218 59.092 24.7218 59.22 24.4178 59.476C24.1138 59.732 23.9338 60.076 23.8778 60.508H22.8098ZM35.2403 59.176L31.9043 67H30.8003L34.1843 59.284H29.5522V58.348H35.2403V59.176ZM36.799 58.636H38.011L36.859 61.36H36.091L36.799 58.636ZM38.743 58.636H39.955L38.803 61.36H38.023L38.743 58.636ZM47.8208 67L46.2608 64.552L44.7608 67H43.6208L45.7448 63.736L43.6208 60.424H44.8568L46.4168 62.86L47.9048 60.424H49.0448L46.9328 63.676L49.0568 67H47.8208ZM52.8623 59.32V58.324H55.1183V67H54.0143V59.32H52.8623ZM56.994 62.572C56.994 61.196 57.218 60.124 57.666 59.356C58.114 58.58 58.898 58.192 60.018 58.192C61.13 58.192 61.91 58.58 62.358 59.356C62.806 60.124 63.03 61.196 63.03 62.572C63.03 63.972 62.806 65.06 62.358 65.836C61.91 66.612 61.13 67 60.018 67C58.898 67 58.114 66.612 57.666 65.836C57.218 65.06 56.994 63.972 56.994 62.572ZM61.95 62.572C61.95 61.876 61.902 61.288 61.806 60.808C61.718 60.32 61.53 59.928 61.242 59.632C60.962 59.336 60.554 59.188 60.018 59.188C59.474 59.188 59.058 59.336 58.77 59.632C58.49 59.928 58.302 60.32 58.206 60.808C58.118 61.288 58.074 61.876 58.074 62.572C58.074 63.292 58.118 63.896 58.206 64.384C58.302 64.872 58.49 65.264 58.77 65.56C59.058 65.856 59.474 66.004 60.018 66.004C60.554 66.004 60.962 65.856 61.242 65.56C61.53 65.264 61.718 64.872 61.806 64.384C61.902 63.896 61.95 63.292 61.95 62.572ZM65.0572 67.072C64.8492 67.072 64.6732 67 64.5292 66.856C64.3852 66.712 64.3132 66.536 64.3132 66.328C64.3132 66.12 64.3852 65.944 64.5292 65.8C64.6732 65.656 64.8492 65.584 65.0572 65.584C65.2572 65.584 65.4252 65.656 65.5612 65.8C65.7052 65.944 65.7772 66.12 65.7772 66.328C65.7772 66.536 65.7052 66.712 65.5612 66.856C65.4252 67 65.2572 67.072 65.0572 67.072ZM68.6327 62.488C68.1847 62.312 67.8407 62.056 67.6007 61.72C67.3607 61.384 67.2407 60.976 67.2407 60.496C67.2407 60.064 67.3487 59.676 67.5647 59.332C67.7807 58.98 68.1007 58.704 68.5247 58.504C68.9567 58.296 69.4767 58.192 70.0847 58.192C70.6927 58.192 71.2087 58.296 71.6327 58.504C72.0647 58.704 72.3887 58.98 72.6047 59.332C72.8287 59.676 72.9407 60.064 72.9407 60.496C72.9407 60.96 72.8167 61.368 72.5687 61.72C72.3207 62.064 71.9807 62.32 71.5487 62.488C72.0447 62.64 72.4367 62.908 72.7247 63.292C73.0207 63.668 73.1687 64.124 73.1687 64.66C73.1687 65.18 73.0407 65.636 72.7847 66.028C72.5287 66.412 72.1647 66.712 71.6927 66.928C71.2287 67.136 70.6927 67.24 70.0847 67.24C69.4767 67.24 68.9407 67.136 68.4767 66.928C68.0207 66.712 67.6647 66.412 67.4087 66.028C67.1527 65.636 67.0247 65.18 67.0247 64.66C67.0247 64.124 67.1687 63.664 67.4567 63.28C67.7447 62.896 68.1367 62.632 68.6327 62.488ZM71.8847 60.628C71.8847 60.14 71.7247 59.764 71.4047 59.5C71.0847 59.236 70.6447 59.104 70.0847 59.104C69.5327 59.104 69.0967 59.236 68.7767 59.5C68.4567 59.764 68.2967 60.144 68.2967 60.64C68.2967 61.088 68.4607 61.448 68.7887 61.72C69.1247 61.992 69.5567 62.128 70.0847 62.128C70.6207 62.128 71.0527 61.992 71.3807 61.72C71.7167 61.44 71.8847 61.076 71.8847 60.628ZM70.0847 62.968C69.4927 62.968 69.0087 63.108 68.6327 63.388C68.2567 63.66 68.0687 64.072 68.0687 64.624C68.0687 65.136 68.2487 65.548 68.6087 65.86C68.9767 66.172 69.4687 66.328 70.0847 66.328C70.7007 66.328 71.1887 66.172 71.5487 65.86C71.9087 65.548 72.0887 65.136 72.0887 64.624C72.0887 64.088 71.9047 63.68 71.5367 63.4C71.1687 63.112 70.6847 62.968 70.0847 62.968ZM79.959 59.176L76.623 67H75.519L78.903 59.284H74.271V58.348H79.959V59.176ZM81.5178 58.636H82.7298L81.5778 61.36H80.8098L81.5178 58.636ZM83.4618 58.636H84.6738L83.5218 61.36H82.7418L83.4618 58.636Z" fill="white"/>
</svg>
