<svg width="95" height="128" viewBox="0 0 95 128" fill="none" xmlns="http://www.w3.org/2000/svg">
<path d="M94.4703 1.125H0.529694V127.444H94.4703V1.125Z" fill="white"/>
<path d="M94.4703 1.125H0.529694V127.444H94.4703V1.125Z" stroke="black" stroke-width="0.75"/>
<path d="M47.6053 4.88806H3.70657V123.681H47.6053V4.88806Z" fill="#2E3191"/>
<path d="M12.7691 43.672C12.8491 44.128 13.0331 44.48 13.3211 44.728C13.6171 44.976 14.0131 45.1 14.5091 45.1C15.1731 45.1 15.6611 44.84 15.9731 44.32C16.2931 43.8 16.4451 42.924 16.4291 41.692C16.2611 42.052 15.9811 42.336 15.5891 42.544C15.1971 42.744 14.7611 42.844 14.2811 42.844C13.7451 42.844 13.2651 42.736 12.8411 42.52C12.4251 42.296 12.0971 41.972 11.8571 41.548C11.6171 41.124 11.4971 40.612 11.4971 40.012C11.4971 39.156 11.7451 38.468 12.2411 37.948C12.7371 37.42 13.4411 37.156 14.3531 37.156C15.4731 37.156 16.2571 37.52 16.7051 38.248C17.1611 38.976 17.3891 40.06 17.3891 41.5C17.3891 42.508 17.2971 43.34 17.1131 43.996C16.9371 44.652 16.6331 45.152 16.2011 45.496C15.7771 45.84 15.1931 46.012 14.4491 46.012C13.6331 46.012 12.9971 45.792 12.5411 45.352C12.0851 44.912 11.8251 44.352 11.7611 43.672H12.7691ZM14.4611 41.92C14.9971 41.92 15.4371 41.756 15.7811 41.428C16.1251 41.092 16.2971 40.64 16.2971 40.072C16.2971 39.472 16.1291 38.988 15.7931 38.62C15.4571 38.252 14.9851 38.068 14.3771 38.068C13.8171 38.068 13.3691 38.244 13.0331 38.596C12.7051 38.948 12.5411 39.412 12.5411 39.988C12.5411 40.572 12.7051 41.04 13.0331 41.392C13.3611 41.744 13.8371 41.92 14.4611 41.92ZM19.4517 46.072C19.2437 46.072 19.0677 46 18.9237 45.856C18.7797 45.712 18.7077 45.536 18.7077 45.328C18.7077 45.12 18.7797 44.944 18.9237 44.8C19.0677 44.656 19.2437 44.584 19.4517 44.584C19.6517 44.584 19.8197 44.656 19.9557 44.8C20.0997 44.944 20.1717 45.12 20.1717 45.328C20.1717 45.536 20.0997 45.712 19.9557 45.856C19.8197 46 19.6517 46.072 19.4517 46.072ZM23.0272 41.488C22.5792 41.312 22.2352 41.056 21.9952 40.72C21.7552 40.384 21.6352 39.976 21.6352 39.496C21.6352 39.064 21.7432 38.676 21.9592 38.332C22.1752 37.98 22.4952 37.704 22.9192 37.504C23.3512 37.296 23.8712 37.192 24.4792 37.192C25.0872 37.192 25.6032 37.296 26.0272 37.504C26.4592 37.704 26.7832 37.98 26.9992 38.332C27.2232 38.676 27.3352 39.064 27.3352 39.496C27.3352 39.96 27.2112 40.368 26.9632 40.72C26.7152 41.064 26.3752 41.32 25.9432 41.488C26.4392 41.64 26.8312 41.908 27.1192 42.292C27.4152 42.668 27.5632 43.124 27.5632 43.66C27.5632 44.18 27.4352 44.636 27.1792 45.028C26.9232 45.412 26.5592 45.712 26.0872 45.928C25.6232 46.136 25.0872 46.24 24.4792 46.24C23.8712 46.24 23.3352 46.136 22.8712 45.928C22.4152 45.712 22.0592 45.412 21.8032 45.028C21.5472 44.636 21.4192 44.18 21.4192 43.66C21.4192 43.124 21.5632 42.664 21.8512 42.28C22.1392 41.896 22.5312 41.632 23.0272 41.488ZM26.2792 39.628C26.2792 39.14 26.1192 38.764 25.7992 38.5C25.4792 38.236 25.0392 38.104 24.4792 38.104C23.9272 38.104 23.4912 38.236 23.1712 38.5C22.8512 38.764 22.6912 39.144 22.6912 39.64C22.6912 40.088 22.8552 40.448 23.1832 40.72C23.5192 40.992 23.9512 41.128 24.4792 41.128C25.0152 41.128 25.4472 40.992 25.7752 40.72C26.1112 40.44 26.2792 40.076 26.2792 39.628ZM24.4792 41.968C23.8872 41.968 23.4032 42.108 23.0272 42.388C22.6512 42.66 22.4632 43.072 22.4632 43.624C22.4632 44.136 22.6432 44.548 23.0032 44.86C23.3712 45.172 23.8632 45.328 24.4792 45.328C25.0952 45.328 25.5832 45.172 25.9432 44.86C26.3032 44.548 26.4832 44.136 26.4832 43.624C26.4832 43.088 26.2992 42.68 25.9312 42.4C25.5632 42.112 25.0792 41.968 24.4792 41.968ZM34.3535 38.176L31.0175 46H29.9135L33.2975 38.284H28.6655V37.348H34.3535V38.176ZM35.9123 37.636H37.1243L35.9723 40.36H35.2043L35.9123 37.636ZM37.8563 37.636H39.0683L37.9163 40.36H37.1363L37.8563 37.636ZM26.4849 64L24.9249 61.552L23.4249 64H22.2849L24.4089 60.736L22.2849 57.424H23.5209L25.0809 59.86L26.5689 57.424H27.7089L25.5969 60.676L27.7209 64H26.4849ZM11.0716 75.508C11.1276 74.772 11.4116 74.196 11.9236 73.78C12.4356 73.364 13.0996 73.156 13.9156 73.156C14.4596 73.156 14.9276 73.256 15.3196 73.456C15.7196 73.648 16.0196 73.912 16.2196 74.248C16.4276 74.584 16.5316 74.964 16.5316 75.388C16.5316 75.884 16.3876 76.312 16.0996 76.672C15.8196 77.032 15.4516 77.264 14.9956 77.368V77.428C15.5156 77.556 15.9276 77.808 16.2316 78.184C16.5356 78.56 16.6876 79.052 16.6876 79.66C16.6876 80.116 16.5836 80.528 16.3756 80.896C16.1676 81.256 15.8556 81.54 15.4396 81.748C15.0236 81.956 14.5236 82.06 13.9396 82.06C13.0916 82.06 12.3956 81.84 11.8516 81.4C11.3076 80.952 11.0036 80.32 10.9396 79.504H11.9956C12.0516 79.984 12.2476 80.376 12.5836 80.68C12.9196 80.984 13.3676 81.136 13.9276 81.136C14.4876 81.136 14.9116 80.992 15.1996 80.704C15.4956 80.408 15.6436 80.028 15.6436 79.564C15.6436 78.964 15.4436 78.532 15.0436 78.268C14.6436 78.004 14.0396 77.872 13.2316 77.872H12.9556V76.96H13.2436C13.9796 76.952 14.5356 76.832 14.9116 76.6C15.2876 76.36 15.4756 75.992 15.4756 75.496C15.4756 75.072 15.3356 74.732 15.0556 74.476C14.7836 74.22 14.3916 74.092 13.8796 74.092C13.3836 74.092 12.9836 74.22 12.6796 74.476C12.3756 74.732 12.1956 75.076 12.1396 75.508H11.0716ZM18.69 82.072C18.482 82.072 18.306 82 18.162 81.856C18.018 81.712 17.946 81.536 17.946 81.328C17.946 81.12 18.018 80.944 18.162 80.8C18.306 80.656 18.482 80.584 18.69 80.584C18.89 80.584 19.058 80.656 19.194 80.8C19.338 80.944 19.41 81.12 19.41 81.328C19.41 81.536 19.338 81.712 19.194 81.856C19.058 82 18.89 82.072 18.69 82.072ZM26.2135 74.272H22.0015V77.008C22.1855 76.752 22.4575 76.544 22.8175 76.384C23.1775 76.216 23.5655 76.132 23.9815 76.132C24.6455 76.132 25.1855 76.272 25.6015 76.552C26.0175 76.824 26.3135 77.18 26.4895 77.62C26.6735 78.052 26.7655 78.512 26.7655 79C26.7655 79.576 26.6575 80.092 26.4415 80.548C26.2255 81.004 25.8935 81.364 25.4455 81.628C25.0055 81.892 24.4575 82.024 23.8015 82.024C22.9615 82.024 22.2815 81.808 21.7615 81.376C21.2415 80.944 20.9255 80.368 20.8135 79.648H21.8815C21.9855 80.104 22.2055 80.46 22.5415 80.716C22.8775 80.972 23.3015 81.1 23.8135 81.1C24.4455 81.1 24.9215 80.912 25.2415 80.536C25.5615 80.152 25.7215 79.648 25.7215 79.024C25.7215 78.4 25.5615 77.92 25.2415 77.584C24.9215 77.24 24.4495 77.068 23.8255 77.068C23.4015 77.068 23.0295 77.172 22.7095 77.38C22.3975 77.58 22.1695 77.856 22.0255 78.208H20.9935V73.312H26.2135V74.272ZM33.0527 75.388C32.8767 74.5 32.3287 74.056 31.4087 74.056C30.6967 74.056 30.1647 74.332 29.8127 74.884C29.4607 75.428 29.2887 76.328 29.2967 77.584C29.4807 77.168 29.7847 76.844 30.2087 76.612C30.6407 76.372 31.1207 76.252 31.6487 76.252C32.4727 76.252 33.1287 76.508 33.6167 77.02C34.1127 77.532 34.3607 78.24 34.3607 79.144C34.3607 79.688 34.2527 80.176 34.0367 80.608C33.8287 81.04 33.5087 81.384 33.0767 81.64C32.6527 81.896 32.1367 82.024 31.5287 82.024C30.7047 82.024 30.0607 81.84 29.5967 81.472C29.1327 81.104 28.8087 80.596 28.6247 79.948C28.4407 79.3 28.3487 78.5 28.3487 77.548C28.3487 74.612 29.3727 73.144 31.4207 73.144C32.2047 73.144 32.8207 73.356 33.2687 73.78C33.7167 74.204 33.9807 74.74 34.0607 75.388H33.0527ZM31.4207 77.176C31.0767 77.176 30.7527 77.248 30.4487 77.392C30.1447 77.528 29.8967 77.74 29.7047 78.028C29.5207 78.308 29.4287 78.652 29.4287 79.06C29.4287 79.668 29.6047 80.164 29.9567 80.548C30.3087 80.924 30.8127 81.112 31.4687 81.112C32.0287 81.112 32.4727 80.94 32.8007 80.596C33.1367 80.244 33.3047 79.772 33.3047 79.18C33.3047 78.556 33.1447 78.068 32.8247 77.716C32.5047 77.356 32.0367 77.176 31.4207 77.176ZM36.1818 73.636H37.3938L36.2418 76.36H35.4738L36.1818 73.636ZM38.1258 73.636H39.3378L38.1858 76.36H37.4058L38.1258 73.636Z" fill="white"/>
</svg>
