<svg width="96" height="128" viewBox="0 0 96 128" fill="none" xmlns="http://www.w3.org/2000/svg">
<path d="M95 1.125H1.05939V127.444H95V1.125Z" fill="white"/>
<path d="M95 1.125H1.05939V127.444H95V1.125Z" stroke="black" stroke-width="0.75"/>
<path d="M90.2872 63H4V124.182H90.2872V63Z" fill="#2E3191"/>
<path d="M14.48 104.068V103.24L18.692 97.408H20V103.12H21.2V104.068H20V106H18.92V104.068H14.48ZM18.968 98.548L15.74 103.12H18.968V98.548ZM22.8189 106.072C22.6109 106.072 22.4349 106 22.2909 105.856C22.1469 105.712 22.0749 105.536 22.0749 105.328C22.0749 105.12 22.1469 104.944 22.2909 104.8C22.4349 104.656 22.6109 104.584 22.8189 104.584C23.0189 104.584 23.1869 104.656 23.3229 104.8C23.4669 104.944 23.5389 105.12 23.5389 105.328C23.5389 105.536 23.4669 105.712 23.3229 105.856C23.1869 106 23.0189 106.072 22.8189 106.072ZM26.3944 101.488C25.9464 101.312 25.6024 101.056 25.3624 100.72C25.1224 100.384 25.0024 99.976 25.0024 99.496C25.0024 99.064 25.1104 98.676 25.3264 98.332C25.5424 97.98 25.8624 97.704 26.2864 97.504C26.7184 97.296 27.2384 97.192 27.8464 97.192C28.4544 97.192 28.9704 97.296 29.3944 97.504C29.8264 97.704 30.1504 97.98 30.3664 98.332C30.5904 98.676 30.7024 99.064 30.7024 99.496C30.7024 99.96 30.5784 100.368 30.3304 100.72C30.0824 101.064 29.7424 101.32 29.3104 101.488C29.8064 101.64 30.1984 101.908 30.4864 102.292C30.7824 102.668 30.9304 103.124 30.9304 103.66C30.9304 104.18 30.8024 104.636 30.5464 105.028C30.2904 105.412 29.9264 105.712 29.4544 105.928C28.9904 106.136 28.4544 106.24 27.8464 106.24C27.2384 106.24 26.7024 106.136 26.2384 105.928C25.7824 105.712 25.4264 105.412 25.1704 105.028C24.9144 104.636 24.7864 104.18 24.7864 103.66C24.7864 103.124 24.9304 102.664 25.2184 102.28C25.5064 101.896 25.8984 101.632 26.3944 101.488ZM29.6464 99.628C29.6464 99.14 29.4864 98.764 29.1664 98.5C28.8464 98.236 28.4064 98.104 27.8464 98.104C27.2944 98.104 26.8584 98.236 26.5384 98.5C26.2184 98.764 26.0584 99.144 26.0584 99.64C26.0584 100.088 26.2224 100.448 26.5504 100.72C26.8864 100.992 27.3184 101.128 27.8464 101.128C28.3824 101.128 28.8144 100.992 29.1424 100.72C29.4784 100.44 29.6464 100.076 29.6464 99.628ZM27.8464 101.968C27.2544 101.968 26.7704 102.108 26.3944 102.388C26.0184 102.66 25.8304 103.072 25.8304 103.624C25.8304 104.136 26.0104 104.548 26.3704 104.86C26.7384 105.172 27.2304 105.328 27.8464 105.328C28.4624 105.328 28.9504 105.172 29.3104 104.86C29.6704 104.548 29.8504 104.136 29.8504 103.624C29.8504 103.088 29.6664 102.68 29.2984 102.4C28.9304 102.112 28.4464 101.968 27.8464 101.968ZM32.0927 98.32V97.324H34.3487V106H33.2447V98.32H32.0927ZM36.5725 97.636H37.7845L36.6325 100.36H35.8645L36.5725 97.636ZM38.5165 97.636H39.7285L38.5765 100.36H37.7965L38.5165 97.636ZM47.5943 106L46.0343 103.552L44.5343 106H43.3943L45.5183 102.736L43.3943 99.424H44.6303L46.1903 101.86L47.6783 99.424H48.8183L46.7063 102.676L48.8303 106H47.5943ZM58.2637 98.176L54.9277 106H53.8237L57.2077 98.284H52.5757V97.348H58.2637V98.176ZM60.0025 106.072C59.7945 106.072 59.6185 106 59.4745 105.856C59.3305 105.712 59.2585 105.536 59.2585 105.328C59.2585 105.12 59.3305 104.944 59.4745 104.8C59.6185 104.656 59.7945 104.584 60.0025 104.584C60.2025 104.584 60.3705 104.656 60.5065 104.8C60.6505 104.944 60.7225 105.12 60.7225 105.328C60.7225 105.536 60.6505 105.712 60.5065 105.856C60.3705 106 60.2025 106.072 60.0025 106.072ZM61.97 99.508C62.026 98.772 62.31 98.196 62.822 97.78C63.334 97.364 63.998 97.156 64.814 97.156C65.358 97.156 65.826 97.256 66.218 97.456C66.618 97.648 66.918 97.912 67.118 98.248C67.326 98.584 67.43 98.964 67.43 99.388C67.43 99.884 67.286 100.312 66.998 100.672C66.718 101.032 66.35 101.264 65.894 101.368V101.428C66.414 101.556 66.826 101.808 67.13 102.184C67.434 102.56 67.586 103.052 67.586 103.66C67.586 104.116 67.482 104.528 67.274 104.896C67.066 105.256 66.754 105.54 66.338 105.748C65.922 105.956 65.422 106.06 64.838 106.06C63.99 106.06 63.294 105.84 62.75 105.4C62.206 104.952 61.902 104.32 61.838 103.504H62.894C62.95 103.984 63.146 104.376 63.482 104.68C63.818 104.984 64.266 105.136 64.826 105.136C65.386 105.136 65.81 104.992 66.098 104.704C66.394 104.408 66.542 104.028 66.542 103.564C66.542 102.964 66.342 102.532 65.942 102.268C65.542 102.004 64.938 101.872 64.13 101.872H63.854V100.96H64.142C64.878 100.952 65.434 100.832 65.81 100.6C66.186 100.36 66.374 99.992 66.374 99.496C66.374 99.072 66.234 98.732 65.954 98.476C65.682 98.22 65.29 98.092 64.778 98.092C64.282 98.092 63.882 98.22 63.578 98.476C63.274 98.732 63.094 99.076 63.038 99.508H61.97ZM74.4004 98.176L71.0644 106H69.9604L73.3444 98.284H68.7124V97.348H74.4004V98.176ZM75.9592 97.636H77.1712L76.0192 100.36H75.2512L75.9592 97.636ZM77.9032 97.636H79.1152L77.9632 100.36H77.1832L77.9032 97.636Z" fill="white"/>
</svg>
