<svg width="16" height="15" viewBox="0 0 16 15" fill="none" xmlns="http://www.w3.org/2000/svg">
<path d="M8.13278 15C4.06117 14.9681 0.688184 11.7045 0.655437 7.53721C0.633605 3.32743 4.10484 0 8.19827 0C12.1389 0 15.7411 3.36995 15.6538 7.7073C15.5774 11.6088 12.1607 15 8.13278 15ZM12.9903 7.49468C12.9903 6.78242 13.034 6.07016 12.9685 5.36853C12.9248 4.91141 12.8157 4.43303 12.5864 4.02906C12.1171 3.16797 11.2656 2.7321 10.305 2.72147C8.62399 2.70021 6.94295 2.75337 5.26191 2.85967C4.45414 2.91283 3.55905 3.74203 3.49355 4.53933C3.38439 5.99575 3.34073 7.45216 3.3189 8.90858C3.30798 9.42948 3.39531 9.95039 3.49355 10.4713C3.67912 11.4387 4.7707 12.2998 5.78588 12.3104C7.31409 12.321 8.84231 12.3423 10.3705 12.2998C10.7962 12.2892 11.2656 12.1616 11.6258 11.9383C12.5864 11.3537 13.0231 10.4607 12.9794 9.34444C12.9794 8.73848 12.9903 8.11127 12.9903 7.49468Z" fill="black"/>
<path d="M8.14369 11.3856C7.35775 11.3856 6.58273 11.3856 5.79679 11.3856C5.24008 11.3856 4.89078 11.1092 4.57422 10.6839C4.214 10.2056 4.13759 9.69528 4.1485 9.13185C4.18125 7.93058 4.15941 6.7293 4.15941 5.52803C4.15941 4.69883 4.53055 4.08224 5.32741 3.75269C5.48023 3.6889 5.6658 3.64638 5.84045 3.64638C7.32501 3.63575 8.82047 3.62512 10.305 3.63575C11.3857 3.64638 12.0734 4.39053 12.0406 5.33667C11.997 6.78246 12.0406 8.23887 12.0297 9.68465C12.0188 10.7796 11.3966 11.3749 10.2614 11.3962C9.55184 11.3962 8.85322 11.3856 8.14369 11.3856ZM8.15461 4.95396C6.77921 4.7945 5.50206 6.15524 5.52389 7.49472C5.55664 8.98302 6.7683 10.1205 8.12186 10.1843C9.46451 10.2375 10.8508 8.89798 10.7635 7.53724C10.6762 6.15524 9.91206 4.89018 8.15461 4.95396ZM10.8508 5.52803C11.0146 5.3473 11.2984 5.16658 11.3093 4.97523C11.3311 4.64567 11.091 4.35864 10.698 4.3799C10.4033 4.39053 10.1522 4.52873 10.174 4.90081C10.185 5.27289 10.3705 5.43235 10.8508 5.52803Z" fill="black"/>
<path d="M8.15459 9.23797C7.24858 9.23797 6.33165 8.40878 6.38623 7.54768C6.45173 6.55902 7.08484 5.88929 8.14368 5.86802C9.25709 5.84676 9.8793 6.80353 9.90113 7.51579C9.93387 8.29184 9.09336 9.26987 8.15459 9.23797Z" fill="black"/>
</svg>
