<svg width="25" height="25" viewBox="0 0 25 25" fill="none" xmlns="http://www.w3.org/2000/svg">
<g clip-path="url(#clip0_1_18)">
<path d="M12.5 24.21C18.9783 24.21 24.23 18.9583 24.23 12.48C24.23 6.0017 18.9783 0.75 12.5 0.75C6.0217 0.75 0.770004 6.0017 0.770004 12.48C0.770004 18.9583 6.0217 24.21 12.5 24.21Z" fill="#EBBA16"/>
<path d="M12.5 18H9.13C8.97723 18.0198 8.822 18.007 8.67455 17.9624C8.52709 17.9178 8.39076 17.8425 8.27454 17.7414C8.15832 17.6403 8.06485 17.5157 8.00029 17.3759C7.93573 17.236 7.90155 17.084 7.9 16.93C7.9 15.31 7.9 13.7 7.9 12.08C7.89941 11.8079 8.00249 11.5459 8.18825 11.3471C8.37401 11.1483 8.62852 11.0278 8.9 11.01C9.01 11.01 9.01 10.94 9.01 10.87V9.87C8.9821 9.36023 9.08177 8.85155 9.3 8.39C9.54917 7.87348 9.92981 7.43156 10.4037 7.10861C10.8776 6.78565 11.4281 6.593 12 6.55C12.559 6.45882 13.1317 6.50196 13.6707 6.67584C14.2097 6.84972 14.6997 7.14936 15.1 7.55C15.3857 7.81139 15.6133 8.12977 15.7684 8.4846C15.9234 8.83942 16.0023 9.2228 16 9.61C16 10.03 16 10.45 16 10.87C16 10.96 16 11 16.13 11.01C16.3952 11.01 16.6496 11.1154 16.8371 11.3029C17.0246 11.4904 17.13 11.7448 17.13 12.01V17C17.1327 17.2412 17.0482 17.4752 16.892 17.659C16.7358 17.8427 16.5184 17.9638 16.28 18C16.1504 18.0148 16.0196 18.0148 15.89 18H12.5ZM12.5 17H15.78C15.9 17 15.95 17 15.95 16.86V12.17C15.95 12.03 15.95 11.99 15.75 11.99H9.28C9.05 11.99 9.05 11.99 9.05 12.19V16.82C9.05 16.95 9.05 16.98 9.25 16.98L12.5 17ZM14.79 11C14.79 10.45 14.79 9.93 14.79 9.41C14.8052 9.29718 14.8052 9.18282 14.79 9.07C14.6247 8.56492 14.2888 8.13306 13.84 7.84844C13.3912 7.56383 12.8574 7.44418 12.33 7.51C11.8252 7.5259 11.3421 7.719 10.9654 8.05544C10.5888 8.39189 10.3426 8.85019 10.27 9.35C10.27 9.84 10.27 10.35 10.27 10.83C10.27 10.96 10.27 11 10.47 11H14.87H14.79Z" fill="white"/>
<path d="M12.38 13C12.6197 12.9748 12.8614 13.0224 13.0736 13.1366C13.2859 13.2507 13.4588 13.4262 13.57 13.64C13.6591 13.8423 13.6706 14.0703 13.6024 14.2805C13.5341 14.4908 13.3909 14.6686 13.2 14.78C13.1613 14.7999 13.1288 14.83 13.1059 14.867C13.083 14.904 13.0706 14.9465 13.07 14.99C13.07 15.15 13.07 15.31 13.07 15.47C13.0662 15.5432 13.0478 15.6148 13.016 15.6808C12.9841 15.7468 12.9394 15.8057 12.8844 15.8541C12.8294 15.9026 12.7653 15.9395 12.6959 15.9629C12.6265 15.9862 12.5531 15.9954 12.48 15.99C12.4079 15.9941 12.3358 15.9834 12.2679 15.9586C12.2001 15.9338 12.1381 15.8954 12.0857 15.8458C12.0332 15.7962 11.9915 15.7363 11.963 15.67C11.9345 15.6037 11.9199 15.5322 11.92 15.46C11.9152 15.4034 11.9152 15.3466 11.92 15.29C11.9389 15.1688 11.9237 15.0447 11.876 14.9316C11.8283 14.8186 11.75 14.721 11.65 14.65C11.4914 14.5319 11.3822 14.3592 11.3434 14.1653C11.3046 13.9714 11.339 13.77 11.44 13.6C11.529 13.4253 11.6631 13.2775 11.8283 13.1721C11.9936 13.0666 12.1841 13.0072 12.38 13Z" fill="white"/>
</g>
<defs>
<clipPath id="clip0_1_18">
<rect width="25" height="25" fill="white"/>
</clipPath>
</defs>
</svg>
