<svg width="12" height="17" viewBox="0 0 12 17" fill="none" xmlns="http://www.w3.org/2000/svg">
<path d="M1.81993 7.01929C1.81993 6.16674 1.79971 5.38383 1.82282 4.60093C1.88637 2.56984 3.50987 0.89259 5.56668 0.705919C7.68994 0.513676 9.61676 1.8343 10.0847 3.83474C10.1743 4.22202 10.1743 4.63436 10.1858 5.03557C10.2003 5.67638 10.1887 6.31719 10.1887 7.02208C10.5932 7.02208 10.9225 7.02765 11.2518 7.02208C11.7371 7.01372 12 7.21989 12 7.70468C12 10.3849 12 13.068 12 15.7482C12 16.2219 11.7689 16.4392 11.2662 16.4392C7.75349 16.4336 4.24362 16.4336 0.730862 16.4392C0.231103 16.4392 0 16.2163 0 15.7427C0.00288878 13.0819 0.00288878 10.4212 0 7.75762C0 7.25611 0.231103 7.00815 0.756861 7.01651C1.08618 7.02486 1.4155 7.01929 1.81993 7.01929ZM10.9052 8.1226C7.59172 8.1226 4.36495 8.1226 1.14107 8.1226C1.14107 10.5577 1.14107 12.9454 1.14107 15.3331C4.41117 15.3331 7.63505 15.3331 10.9052 15.3331C10.9052 15.0489 10.9052 14.8093 10.9052 14.5697C10.9052 12.4327 10.9052 10.2986 10.9052 8.1226ZM9.11122 6.98029C9.11122 6.10544 9.16033 5.30025 9.09966 4.50063C8.987 2.99333 7.71883 1.82316 6.19644 1.75072C4.56139 1.67271 3.17188 2.68129 2.95522 4.24431C2.83101 5.12751 2.93211 6.03857 2.93211 6.9775C4.97737 6.98029 7.01107 6.98029 9.11122 6.98029Z" fill="black"/>
<path d="M6.0202 9.59084C6.38419 9.85553 6.78284 10.006 6.9215 10.279C7.06016 10.5548 7.08038 11.0675 6.90417 11.2737C6.53729 11.6916 6.49396 12.1179 6.51707 12.5999C6.53152 12.9648 6.49974 13.3326 5.9942 13.3131C5.54066 13.2964 5.51178 12.9481 5.51466 12.6082C5.52044 12.1318 5.54066 11.6916 5.14201 11.2737C4.96002 11.0842 4.99179 10.5576 5.13046 10.279C5.26334 10.0032 5.6591 9.85274 6.0202 9.59084Z" fill="black"/>
</svg>
