<svg width="15" height="18" viewBox="0 0 15 18" fill="none" xmlns="http://www.w3.org/2000/svg">
<path d="M7.42725 17C5.41172 17 3.39695 17 1.38217 17C0.393628 17 -0.0504997 16.5135 0.00454483 15.5321C0.219445 11.8592 3.07799 9.09739 6.71545 9.07756C7.66025 9.07222 8.6239 9.04859 9.5476 9.21329C12.6127 9.76076 14.8394 12.3914 14.994 15.5321C15.043 16.5234 14.6064 16.9977 13.6126 17.0007C11.5496 17.0038 9.48954 17 7.42725 17ZM7.43932 16.2542C9.4541 16.2542 11.4696 16.2367 13.4844 16.2649C14.0952 16.2733 14.2618 16.0362 14.2309 15.4528C14.0907 12.7787 12.0789 10.3936 9.43224 9.95292C8.41429 9.78364 7.3511 9.78135 6.31581 9.83778C3.37507 9.99867 0.981017 12.4135 0.784968 15.3316C0.727662 16.1833 0.784969 16.2527 1.60611 16.2535C3.55102 16.2555 5.49542 16.2565 7.43932 16.2565V16.2542Z" fill="black"/>
<path d="M11.5367 4.13275C11.5164 6.36993 9.69388 8.19613 7.48984 8.18774C6.95544 8.18617 6.42664 8.07763 5.93393 7.86837C5.44122 7.65912 4.99434 7.35328 4.6191 6.96852C4.24385 6.58375 3.94766 6.12766 3.74759 5.62656C3.54751 5.12546 3.44753 4.58926 3.4534 4.04889C3.45927 3.50852 3.57089 2.97467 3.7818 2.47814C3.99271 1.9816 4.29875 1.53221 4.68227 1.15587C5.06579 0.779538 5.51919 0.483711 6.01633 0.285454C6.51347 0.0871974 7.04451 -0.00956604 7.57881 0.000745373C9.78813 0.032008 11.5571 1.87879 11.5367 4.13275ZM10.7872 4.11216C10.7897 3.45521 10.5998 2.81223 10.2413 2.26435C9.88275 1.71648 9.3718 1.28827 8.77288 1.03375C8.17395 0.779231 7.5139 0.709816 6.876 0.834263C6.2381 0.958711 5.65095 1.27144 5.18864 1.733C4.72632 2.19455 4.40957 2.78424 4.27835 3.42766C4.14712 4.07107 4.20731 4.73937 4.45131 5.34824C4.69531 5.9571 5.11218 6.47923 5.64933 6.84874C6.18648 7.21826 6.81984 7.41859 7.46948 7.42447C8.34344 7.42935 9.18361 7.0834 9.80561 6.46256C10.4276 5.84171 10.7807 4.99669 10.7872 4.11292V4.11216Z" fill="black"/>
</svg>
