<svg id="Layer_1" data-name="Layer 1" xmlns="http://www.w3.org/2000/svg" viewBox="0 0 25 25"><path d="M3.07,12.5c0,3.53,0,7.07,0,10.61a1.35,1.35,0,0,0,1,1.42,1.12,1.12,0,0,0,.31,0H15.18a.93.93,0,0,0,.56-.25q3.07-3,6.13-6a5.33,5.33,0,0,0,.56-.68.44.44,0,0,0,.07-.26V1.69A1.3,1.3,0,0,0,21.18.37Q12.8.36,4.41.37A1.3,1.3,0,0,0,3.07,1.72Zm1.42,0V2.08c0-.31,0-.31.31-.31h16c.23,0,.3.08.29.31V16.45c0,.21,0,.28-.28.28-1.81,0-3.61,0-5.42,0-.63,0-.88.25-.88.89v5.24c0,.33,0,.33-.34.33H4.86c-.37,0-.37,0-.37-.37ZM16,22l-.05,0a1.77,1.77,0,0,1,0-.23c0-1.12,0-2.25,0-3.37,0-.29,0-.3.3-.3h3.61l.23,0,0,.06Z"/><path d="M12.79,6.27H18a.56.56,0,0,0,.56-.81.57.57,0,0,0-.48-.34H7.66c-.38,0-.56.11-.66.4a.55.55,0,0,0,.53.75h5.26Z"/><path d="M12.77,9.16H7.51A.45.45,0,0,0,7,9.5a.56.56,0,0,0,.17.66.5.5,0,0,0,.23.09,2.55,2.55,0,0,0,.39,0H18.07a.49.49,0,0,0,.5-.35.55.55,0,0,0-.2-.66A.79.79,0,0,0,18,9.16Z"/><path d="M11.63,13.18h-4c-.37,0-.55.12-.64.41a.55.55,0,0,0,.48.72h8.18a.57.57,0,1,0,.07-1.13H11.63Z"/><path d="M9.4,18.3c.62,0,1.24,0,1.86,0a.56.56,0,1,0,0-1.11c-1.25,0-2.49,0-3.74,0a.54.54,0,0,0-.57.56.53.53,0,0,0,.58.54Z"/></svg>