<svg width="95" height="128" viewBox="0 0 95 128" fill="none" xmlns="http://www.w3.org/2000/svg">
<path d="M93.685 1H1V127.423H93.685V1Z" fill="white"/>
<path d="M93.685 1H1V127.423H93.685V1Z" stroke="black" stroke-width="0.75"/>
<path d="M90.3843 4.41345H47.666V62.0712H90.3843V4.41345Z" fill="#2E3191"/>
<path d="M55.2255 17.8236V16.9956L59.4375 11.1636H60.7455V16.8756H61.9455V17.8236H60.7455V19.7556H59.6655V17.8236H55.2255ZM59.7135 12.3036L56.4855 16.8756H59.7135V12.3036ZM63.5644 19.8276C63.3564 19.8276 63.1804 19.7556 63.0364 19.6116C62.8924 19.4676 62.8204 19.2916 62.8204 19.0836C62.8204 18.8756 62.8924 18.6996 63.0364 18.5556C63.1804 18.4116 63.3564 18.3396 63.5644 18.3396C63.7644 18.3396 63.9324 18.4116 64.0684 18.5556C64.2124 18.6996 64.2844 18.8756 64.2844 19.0836C64.2844 19.2916 64.2124 19.4676 64.0684 19.6116C63.9324 19.7556 63.7644 19.8276 63.5644 19.8276ZM67.1399 15.2436C66.6919 15.0676 66.3479 14.8116 66.1079 14.4756C65.8679 14.1396 65.7479 13.7316 65.7479 13.2516C65.7479 12.8196 65.8559 12.4316 66.0719 12.0876C66.2879 11.7356 66.6079 11.4596 67.0319 11.2596C67.4639 11.0516 67.9839 10.9476 68.5919 10.9476C69.1999 10.9476 69.7159 11.0516 70.1399 11.2596C70.5719 11.4596 70.8959 11.7356 71.1119 12.0876C71.3359 12.4316 71.4479 12.8196 71.4479 13.2516C71.4479 13.7156 71.3239 14.1236 71.0759 14.4756C70.8279 14.8196 70.4879 15.0756 70.0559 15.2436C70.5519 15.3956 70.9439 15.6636 71.2319 16.0476C71.5279 16.4236 71.6759 16.8796 71.6759 17.4156C71.6759 17.9356 71.5479 18.3916 71.2919 18.7836C71.0359 19.1676 70.6719 19.4676 70.1999 19.6836C69.7359 19.8916 69.1999 19.9956 68.5919 19.9956C67.9839 19.9956 67.4479 19.8916 66.9839 19.6836C66.5279 19.4676 66.1719 19.1676 65.9159 18.7836C65.6599 18.3916 65.5319 17.9356 65.5319 17.4156C65.5319 16.8796 65.6759 16.4196 65.9639 16.0356C66.2519 15.6516 66.6439 15.3876 67.1399 15.2436ZM70.3919 13.3836C70.3919 12.8956 70.2319 12.5196 69.9119 12.2556C69.5919 11.9916 69.1519 11.8596 68.5919 11.8596C68.0399 11.8596 67.6039 11.9916 67.2839 12.2556C66.9639 12.5196 66.8039 12.8996 66.8039 13.3956C66.8039 13.8436 66.9679 14.2036 67.2959 14.4756C67.6319 14.7476 68.0639 14.8836 68.5919 14.8836C69.1279 14.8836 69.5599 14.7476 69.8879 14.4756C70.2239 14.1956 70.3919 13.8316 70.3919 13.3836ZM68.5919 15.7236C67.9999 15.7236 67.5159 15.8636 67.1399 16.1436C66.7639 16.4156 66.5759 16.8276 66.5759 17.3796C66.5759 17.8916 66.7559 18.3036 67.1159 18.6156C67.4839 18.9276 67.9759 19.0836 68.5919 19.0836C69.2079 19.0836 69.6959 18.9276 70.0559 18.6156C70.4159 18.3036 70.5959 17.8916 70.5959 17.3796C70.5959 16.8436 70.4119 16.4356 70.0439 16.1556C69.6759 15.8676 69.1919 15.7236 68.5919 15.7236ZM78.4662 11.9316L75.1302 19.7556H74.0262L77.4102 12.0396H72.7782V11.1036H78.4662V11.9316ZM80.025 11.3916H81.237L80.085 14.1156H79.317L80.025 11.3916ZM81.969 11.3916H83.181L82.029 14.1156H81.249L81.969 11.3916ZM70.6034 34.7556L69.0434 32.3076L67.5434 34.7556H66.4034L68.5274 31.4916L66.4034 28.1796H67.6394L69.1994 30.6156L70.6874 28.1796H71.8274L69.7154 31.4316L71.8394 34.7556H70.6034ZM55.4245 43.2636C55.4805 42.5276 55.7645 41.9516 56.2765 41.5356C56.7885 41.1196 57.4525 40.9116 58.2685 40.9116C58.8125 40.9116 59.2805 41.0116 59.6725 41.2116C60.0725 41.4036 60.3725 41.6676 60.5725 42.0036C60.7805 42.3396 60.8845 42.7196 60.8845 43.1436C60.8845 43.6396 60.7405 44.0676 60.4525 44.4276C60.1725 44.7876 59.8045 45.0196 59.3485 45.1236V45.1836C59.8685 45.3116 60.2805 45.5636 60.5845 45.9396C60.8885 46.3156 61.0405 46.8076 61.0405 47.4156C61.0405 47.8716 60.9365 48.2836 60.7285 48.6516C60.5205 49.0116 60.2085 49.2956 59.7925 49.5036C59.3765 49.7116 58.8765 49.8156 58.2925 49.8156C57.4445 49.8156 56.7485 49.5956 56.2045 49.1556C55.6605 48.7076 55.3565 48.0756 55.2925 47.2596H56.3485C56.4045 47.7396 56.6005 48.1316 56.9365 48.4356C57.2725 48.7396 57.7205 48.8916 58.2805 48.8916C58.8405 48.8916 59.2645 48.7476 59.5525 48.4596C59.8485 48.1636 59.9965 47.7836 59.9965 47.3196C59.9965 46.7196 59.7965 46.2876 59.3965 46.0236C58.9965 45.7596 58.3925 45.6276 57.5845 45.6276H57.3085V44.7156H57.5965C58.3325 44.7076 58.8885 44.5876 59.2645 44.3556C59.6405 44.1156 59.8285 43.7476 59.8285 43.2516C59.8285 42.8276 59.6885 42.4876 59.4085 42.2316C59.1365 41.9756 58.7445 41.8476 58.2325 41.8476C57.7365 41.8476 57.3365 41.9756 57.0325 42.2316C56.7285 42.4876 56.5485 42.8316 56.4925 43.2636H55.4245ZM63.0429 49.8276C62.8349 49.8276 62.6589 49.7556 62.5149 49.6116C62.3709 49.4676 62.2989 49.2916 62.2989 49.0836C62.2989 48.8756 62.3709 48.6996 62.5149 48.5556C62.6589 48.4116 62.8349 48.3396 63.0429 48.3396C63.2429 48.3396 63.4109 48.4116 63.5469 48.5556C63.6909 48.6996 63.7629 48.8756 63.7629 49.0836C63.7629 49.2916 63.6909 49.4676 63.5469 49.6116C63.4109 49.7556 63.2429 49.8276 63.0429 49.8276ZM69.8704 43.1436C69.6944 42.2556 69.1464 41.8116 68.2264 41.8116C67.5144 41.8116 66.9824 42.0876 66.6304 42.6396C66.2784 43.1836 66.1064 44.0836 66.1144 45.3396C66.2984 44.9236 66.6024 44.5996 67.0264 44.3676C67.4584 44.1276 67.9384 44.0076 68.4664 44.0076C69.2904 44.0076 69.9464 44.2636 70.4344 44.7756C70.9304 45.2876 71.1784 45.9956 71.1784 46.8996C71.1784 47.4436 71.0704 47.9316 70.8544 48.3636C70.6464 48.7956 70.3264 49.1396 69.8944 49.3956C69.4704 49.6516 68.9544 49.7796 68.3464 49.7796C67.5224 49.7796 66.8784 49.5956 66.4144 49.2276C65.9504 48.8596 65.6264 48.3516 65.4424 47.7036C65.2584 47.0556 65.1664 46.2556 65.1664 45.3036C65.1664 42.3676 66.1904 40.8996 68.2384 40.8996C69.0224 40.8996 69.6384 41.1116 70.0864 41.5356C70.5344 41.9596 70.7984 42.4956 70.8784 43.1436H69.8704ZM68.2384 44.9316C67.8944 44.9316 67.5704 45.0036 67.2664 45.1476C66.9624 45.2836 66.7144 45.4956 66.5224 45.7836C66.3384 46.0636 66.2464 46.4076 66.2464 46.8156C66.2464 47.4236 66.4224 47.9196 66.7744 48.3036C67.1264 48.6796 67.6304 48.8676 68.2864 48.8676C68.8464 48.8676 69.2904 48.6956 69.6184 48.3516C69.9544 47.9996 70.1224 47.5276 70.1224 46.9356C70.1224 46.3116 69.9624 45.8236 69.6424 45.4716C69.3224 45.1116 68.8544 44.9316 68.2384 44.9316ZM72.6276 43.2636C72.6836 42.5276 72.9676 41.9516 73.4796 41.5356C73.9916 41.1196 74.6556 40.9116 75.4716 40.9116C76.0156 40.9116 76.4836 41.0116 76.8756 41.2116C77.2756 41.4036 77.5756 41.6676 77.7756 42.0036C77.9836 42.3396 78.0876 42.7196 78.0876 43.1436C78.0876 43.6396 77.9436 44.0676 77.6556 44.4276C77.3756 44.7876 77.0076 45.0196 76.5516 45.1236V45.1836C77.0716 45.3116 77.4836 45.5636 77.7876 45.9396C78.0916 46.3156 78.2436 46.8076 78.2436 47.4156C78.2436 47.8716 78.1396 48.2836 77.9316 48.6516C77.7236 49.0116 77.4116 49.2956 76.9956 49.5036C76.5796 49.7116 76.0796 49.8156 75.4956 49.8156C74.6476 49.8156 73.9516 49.5956 73.4076 49.1556C72.8636 48.7076 72.5596 48.0756 72.4956 47.2596H73.5516C73.6076 47.7396 73.8036 48.1316 74.1396 48.4356C74.4756 48.7396 74.9236 48.8916 75.4836 48.8916C76.0436 48.8916 76.4676 48.7476 76.7556 48.4596C77.0516 48.1636 77.1996 47.7836 77.1996 47.3196C77.1996 46.7196 76.9996 46.2876 76.5996 46.0236C76.1996 45.7596 75.5956 45.6276 74.7876 45.6276H74.5116V44.7156H74.7996C75.5356 44.7076 76.0916 44.5876 76.4676 44.3556C76.8436 44.1156 77.0316 43.7476 77.0316 43.2516C77.0316 42.8276 76.8916 42.4876 76.6116 42.2316C76.3396 41.9756 75.9476 41.8476 75.4356 41.8476C74.9396 41.8476 74.5396 41.9756 74.2356 42.2316C73.9316 42.4876 73.7516 42.8316 73.6956 43.2636H72.6276ZM80.066 41.3916H81.278L80.126 44.1156H79.358L80.066 41.3916ZM82.01 41.3916H83.222L82.07 44.1156H81.29L82.01 41.3916Z" fill="white"/>
</svg>
