<svg width="25" height="25" viewBox="0 0 25 25" fill="none" xmlns="http://www.w3.org/2000/svg">
<path d="M10.01 1.84H1.94V9.91H10.01V1.84Z" stroke="white" stroke-width="2" stroke-miterlimit="10"/>
<path d="M6.83 5.05H4.86V7.02H6.83V5.05Z" fill="white"/>
<path d="M22.08 2H14.01V10.07H22.08V2Z" stroke="white" stroke-width="2" stroke-miterlimit="10"/>
<path d="M18.9 5.22H16.93V7.19H18.9V5.22Z" fill="white"/>
<path d="M10.01 13.8H1.94V21.87H10.01V13.8Z" stroke="white" stroke-width="2" stroke-miterlimit="10"/>
<path d="M6.83 17.02H4.86V18.99H6.83V17.02Z" fill="white"/>
<path d="M19.03 21.15H17.06V23.12H19.03V21.15Z" fill="white"/>
<path d="M23.06 21.15H21.09V23.12H23.06V21.15Z" fill="white"/>
<path d="M14.95 23.12H13.13V13.08H18.91V15H21.32V12.98H23.04V18.98H17.14V17.02H15L14.95 23.12Z" fill="white"/>
</svg>
