<svg width="96" height="128" viewBox="0 0 96 128" fill="none" xmlns="http://www.w3.org/2000/svg">
<path d="M94.9406 1H1V127.319H94.9406V1Z" fill="white"/>
<path d="M94.9406 1H1V127.319H94.9406V1Z" stroke="black" stroke-width="0.75"/>
<path d="M52 96H4V124H52V96Z" fill="#2E3191"/>
<path d="M6.72 108.508C6.776 107.772 7.06 107.196 7.572 106.78C8.084 106.364 8.748 106.156 9.564 106.156C10.108 106.156 10.576 106.256 10.968 106.456C11.368 106.648 11.668 106.912 11.868 107.248C12.076 107.584 12.18 107.964 12.18 108.388C12.18 108.884 12.036 109.312 11.748 109.672C11.468 110.032 11.1 110.264 10.644 110.368V110.428C11.164 110.556 11.576 110.808 11.88 111.184C12.184 111.56 12.336 112.052 12.336 112.66C12.336 113.116 12.232 113.528 12.024 113.896C11.816 114.256 11.504 114.54 11.088 114.748C10.672 114.956 10.172 115.06 9.588 115.06C8.74 115.06 8.044 114.84 7.5 114.4C6.956 113.952 6.652 113.32 6.588 112.504H7.644C7.7 112.984 7.896 113.376 8.232 113.68C8.568 113.984 9.016 114.136 9.576 114.136C10.136 114.136 10.56 113.992 10.848 113.704C11.144 113.408 11.292 113.028 11.292 112.564C11.292 111.964 11.092 111.532 10.692 111.268C10.292 111.004 9.688 110.872 8.88 110.872H8.604V109.96H8.892C9.628 109.952 10.184 109.832 10.56 109.6C10.936 109.36 11.124 108.992 11.124 108.496C11.124 108.072 10.984 107.732 10.704 107.476C10.432 107.22 10.04 107.092 9.528 107.092C9.032 107.092 8.632 107.22 8.328 107.476C8.024 107.732 7.844 108.076 7.788 108.508H6.72ZM14.3384 115.072C14.1304 115.072 13.9544 115 13.8104 114.856C13.6664 114.712 13.5944 114.536 13.5944 114.328C13.5944 114.12 13.6664 113.944 13.8104 113.8C13.9544 113.656 14.1304 113.584 14.3384 113.584C14.5384 113.584 14.7064 113.656 14.8424 113.8C14.9864 113.944 15.0584 114.12 15.0584 114.328C15.0584 114.536 14.9864 114.712 14.8424 114.856C14.7064 115 14.5384 115.072 14.3384 115.072ZM21.8619 107.272H17.6499V110.008C17.8339 109.752 18.1059 109.544 18.4659 109.384C18.8259 109.216 19.2139 109.132 19.6299 109.132C20.2939 109.132 20.8339 109.272 21.2499 109.552C21.6659 109.824 21.9619 110.18 22.1379 110.62C22.3219 111.052 22.4139 111.512 22.4139 112C22.4139 112.576 22.3059 113.092 22.0899 113.548C21.8739 114.004 21.5419 114.364 21.0939 114.628C20.6539 114.892 20.1059 115.024 19.4499 115.024C18.6099 115.024 17.9299 114.808 17.4099 114.376C16.8899 113.944 16.5739 113.368 16.4619 112.648H17.5299C17.6339 113.104 17.8539 113.46 18.1899 113.716C18.5259 113.972 18.9499 114.1 19.4619 114.1C20.0939 114.1 20.5699 113.912 20.8899 113.536C21.2099 113.152 21.3699 112.648 21.3699 112.024C21.3699 111.4 21.2099 110.92 20.8899 110.584C20.5699 110.24 20.0979 110.068 19.4739 110.068C19.0499 110.068 18.6779 110.172 18.3579 110.38C18.0459 110.58 17.8179 110.856 17.6739 111.208H16.6419V106.312H21.8619V107.272ZM24.2131 106.636H25.4251L24.2731 109.36H23.5051L24.2131 106.636ZM26.1571 106.636H27.3691L26.2171 109.36H25.4371L26.1571 106.636ZM35.2349 115L33.6749 112.552L32.1749 115H31.0349L33.1589 111.736L31.0349 108.424H32.2709L33.8309 110.86L35.3189 108.424H36.4589L34.3469 111.676L36.4709 115H35.2349ZM40.4323 114.124C41.4483 113.308 42.2443 112.64 42.8203 112.12C43.3963 111.592 43.8803 111.044 44.2723 110.476C44.6723 109.9 44.8723 109.336 44.8723 108.784C44.8723 108.264 44.7443 107.856 44.4883 107.56C44.2403 107.256 43.8363 107.104 43.2763 107.104C42.7323 107.104 42.3083 107.276 42.0043 107.62C41.7083 107.956 41.5483 108.408 41.5243 108.976H40.4683C40.5003 108.08 40.7723 107.388 41.2843 106.9C41.7963 106.412 42.4563 106.168 43.2643 106.168C44.0883 106.168 44.7403 106.396 45.2203 106.852C45.7083 107.308 45.9523 107.936 45.9523 108.736C45.9523 109.4 45.7523 110.048 45.3523 110.68C44.9603 111.304 44.5123 111.856 44.0083 112.336C43.5043 112.808 42.8603 113.36 42.0763 113.992H46.2043V114.904H40.4323V114.124ZM47.8147 106.636H49.0267L47.8747 109.36H47.1067L47.8147 106.636ZM49.7587 106.636H50.9707L49.8187 109.36H49.0387L49.7587 106.636Z" fill="white"/>
</svg>
