<svg width="25" height="25" viewBox="0 0 25 25" fill="none" xmlns="http://www.w3.org/2000/svg">
<path d="M5.33 22.92L7.06 15.6C7.06985 15.5581 7.06954 15.5145 7.05911 15.4727C7.04867 15.431 7.02841 15.3923 7 15.36L1.52 10C1.48521 9.96686 1.46071 9.92439 1.44943 9.87769C1.43815 9.83098 1.44057 9.78201 1.45639 9.73665C1.47222 9.69128 1.50078 9.65143 1.53867 9.62188C1.57655 9.59232 1.62215 9.57431 1.67 9.57L8.94 8.7C8.98312 8.69779 9.02474 8.68348 9.06011 8.65873C9.09548 8.63397 9.12317 8.59975 9.14 8.56L12.41 1.56C12.4292 1.5149 12.4613 1.47645 12.5022 1.44942C12.543 1.42239 12.591 1.40798 12.64 1.40798C12.689 1.40798 12.737 1.42239 12.7779 1.44942C12.8187 1.47645 12.8508 1.5149 12.87 1.56L16 8.65C16.0163 8.69096 16.0436 8.72664 16.0789 8.7531C16.1142 8.77956 16.1561 8.79579 16.2 8.8L23.57 9.71C23.6192 9.71423 23.6661 9.73294 23.7047 9.76378C23.7433 9.79462 23.7719 9.83621 23.7868 9.88328C23.8018 9.93036 23.8025 9.98081 23.7888 10.0283C23.7752 10.0758 23.7477 10.1181 23.71 10.15L18.25 15.22C18.2165 15.2493 18.1915 15.2869 18.1774 15.3291C18.1633 15.3713 18.1608 15.4165 18.17 15.46L20 23.24C20.0077 23.2879 20.0018 23.3369 19.983 23.3817C19.9643 23.4264 19.9334 23.4649 19.8939 23.493C19.8543 23.5211 19.8077 23.5376 19.7594 23.5406C19.711 23.5436 19.6627 23.533 19.62 23.51L12.82 19.61C12.782 19.5881 12.7389 19.5765 12.695 19.5765C12.6511 19.5765 12.608 19.5881 12.57 19.61L5.69 23.2C5.64743 23.2226 5.59924 23.2324 5.55124 23.2282C5.50324 23.224 5.45746 23.206 5.41943 23.1765C5.38139 23.1469 5.35272 23.1069 5.33685 23.0614C5.32099 23.0159 5.31861 22.9668 5.33 22.92Z" fill="white"/>
</svg>
