<svg id="Layer_1" data-name="Layer 1" xmlns="http://www.w3.org/2000/svg" viewBox="0 0 25 25"><path d="M19.84,15.85a2,2,0,0,0,1,.07c.29-.05,1.23-.47,1.22-.27a.86.86,0,0,0,.43.74,3.91,3.91,0,0,1-2.23.7,3.4,3.4,0,0,1-.45,0C19.88,16.5,19.77,15.78,19.84,15.85Z"/><path d="M20.27,9.23a3.93,3.93,0,0,1,3.3,6.06,1.38,1.38,0,0,0-.37-.76,1.86,1.86,0,0,0,.25-1.68,1.08,1.08,0,0,0-1.9.25c-.37.86.38.76.41.69s.31-.52.51-.37c.33.47-.58.54-.77.54s-1.6-.14-1.86-.64a16.74,16.74,0,0,0-1.12-1.57l-.09.23-.17-.18-.09.31c-.43,0-.49.29-.49.29s-.59,0-.61.06-.14.37.4.59.39.93.41,1.35.94,1.34.93,1.37-.17.06,0,.72a1.09,1.09,0,0,1,0,.4,3.92,3.92,0,0,1,1.21-7.66Z"/><path d="M5.39,9.23a3.92,3.92,0,0,0-3.82,4.84,2.52,2.52,0,0,1,.56.13,2.06,2.06,0,0,0,2-.72,7.83,7.83,0,0,1,2.19-2.09l.27-.54.19.58.28-.58.06.8a.81.81,0,0,1,.26.66l.25.41a1.41,1.41,0,0,1,.2.76.45.45,0,0,1-.71-.05A1.17,1.17,0,0,1,6.69,13c-.5,0-.5.68-.5.68L6.1,15.64v0s0,.06,0,.09a2.31,2.31,0,0,1-.48,1.3,3.93,3.93,0,0,0-.25-7.85Z"/><path d="M11.55,12.23s-.06,0-.06.07,0,.09.11.15a.41.41,0,0,0,.19.08H12A.54.54,0,0,0,11.55,12.23Z"/><path d="M12.75,16.9a7,7,0,0,0-.43-1.4,2.62,2.62,0,0,1-.77-2.26c-.63-.57-.22-.83.14-1.93.08.23.15.4.2.51a4,4,0,0,1,.86,0,1.38,1.38,0,0,1,.42-.53l.06.12a1.57,1.57,0,0,0,.07.49,1.93,1.93,0,0,0,0,.35,2.29,2.29,0,0,1,.05.36.68.68,0,0,1-.18.48,8,8,0,0,1,.47.75,1.27,1.27,0,0,1,1,.61,2.77,2.77,0,0,1,.55,1.08.92.92,0,0,0,.07.32h0a1.5,1.5,0,0,1,0,.3,4.42,4.42,0,0,0,.53-.53,9,9,0,0,0-.61-1l0-.09a.84.84,0,0,1,.58.27,2.27,2.27,0,0,1,.31.4,3.86,3.86,0,0,0,.6-2.07,3.93,3.93,0,1,0-4.25,3.91A1.91,1.91,0,0,1,12.75,16.9Z"/><path d="M13,12.4a.26.26,0,0,0-.13-.05.41.41,0,0,0-.34.24h.2A.24.24,0,0,0,13,12.4Z"/><path d="M14.22,7.36h0L13.14,9a.56.56,0,0,1,.36.41H12A.55.55,0,0,1,12.33,9l-.57-.87h0A.25.25,0,1,1,12,7.86a.28.28,0,0,1,0,.13l.6.93a.75.75,0,0,1,.21,0,.68.68,0,0,1,.21,0L14,7.25a.17.17,0,0,1,0-.12.23.23,0,0,1,.23-.24.24.24,0,0,1,.24.24A.23.23,0,0,1,14.22,7.36Z"/></svg>