<svg width="16" height="15" viewBox="0 0 16 15" fill="none" xmlns="http://www.w3.org/2000/svg">
<path d="M7.4755 15.0003C3.33926 15.0003 -0.102161 11.5834 0.00410599 7.31637C0.102199 3.23735 3.43326 0.0370783 7.43462 0.00029354C11.6117 -0.0364912 15.094 3.38858 15 7.67604C14.906 11.7632 11.5423 15.0248 7.4755 15.0003ZM7.51228 4.53299C6.55588 4.56569 5.60356 4.58612 4.65125 4.63108C3.87059 4.66787 3.48639 5.02345 3.39239 5.8082C3.25751 6.94035 3.25751 8.08067 3.39648 9.21283C3.4537 9.68285 3.62536 10.1079 4.13217 10.2714C4.31609 10.3327 4.51637 10.3654 4.71255 10.3736C6.60492 10.4799 8.49729 10.4839 10.3856 10.3695C11.1008 10.3286 11.4442 10.0589 11.5627 9.35179C11.7711 8.11746 11.767 6.86678 11.5586 5.63245C11.4442 4.94171 11.0722 4.66787 10.3447 4.63108C9.40465 4.59021 8.45642 4.56569 7.51228 4.53299Z" fill="black"/>
<path d="M8.90193 7.41442C8.13353 7.81087 7.40193 8.19098 6.64171 8.58335C6.64171 7.79453 6.64171 7.03022 6.64171 6.2373C7.38966 6.62559 8.12536 7.00978 8.90193 7.41442Z" fill="black"/>
</svg>
